<svg xmlns="http://www.w3.org/2000/svg" xmlns:xlink="http://www.w3.org/1999/xlink" viewBox="0 0 1285.5 857"><defs><style>.cls-1{isolation:isolate;}.cls-2{fill:url(#Áåçûìÿííûé_ãðàäèåíò_96);}.cls-10,.cls-11,.cls-3,.cls-8,.cls-9{mix-blend-mode:screen;}.cls-3{fill:url(#Áåçûìÿííûé_ãðàäèåíò_89);}.cls-4{fill:url(#Áåçûìÿííûé_ãðàäèåíò_86);}.cls-5{fill:url(#Áåçûìÿííûé_ãðàäèåíò_96-2);}.cls-6{fill:url(#Áåçûìÿííûé_ãðàäèåíò_96-3);}.cls-7{fill:url(#Áåçûìÿííûé_ãðàäèåíò_101);}.cls-8{fill:url(#Áåçûìÿííûé_ãðàäèåíò_43);}.cls-9{fill:url(#Áåçûìÿííûé_ãðàäèåíò_43-2);}.cls-10{fill:url(#Áåçûìÿííûé_ãðàäèåíò_43-3);}.cls-11{fill:url(#Áåçûìÿííûé_ãðàäèåíò_43-4);}</style><linearGradient id="Áåçûìÿííûé_ãðàäèåíò_96" x1="642.75" y1="2.14" x2="642.75" y2="616.29" gradientUnits="userSpaceOnUse"><stop offset="0" stop-color="#35c2ff"/><stop offset="0.18" stop-color="#47c9ff"/><stop offset="0.53" stop-color="#76dcff"/><stop offset="1" stop-color="#bdf8fe"/></linearGradient><radialGradient id="Áåçûìÿííûé_ãðàäèåíò_89" cx="842.57" cy="186.11" r="133.91" gradientTransform="translate(378.39 -541.28) rotate(45)" gradientUnits="userSpaceOnUse"><stop offset="0" stop-color="#ff0"/><stop offset="0.19" stop-color="#caca00"/><stop offset="0.59" stop-color="#5e5e00"/><stop offset="0.87" stop-color="#1a1a00"/><stop offset="1"/></radialGradient><radialGradient id="Áåçûìÿííûé_ãðàäèåíò_86" cx="842.57" cy="186.11" r="50.85" gradientTransform="translate(378.39 -541.28) rotate(45)" gradientUnits="userSpaceOnUse"><stop offset="0" stop-color="#ff0"/><stop offset="0.14" stop-color="#ffff04"/><stop offset="0.29" stop-color="#ffff12"/><stop offset="0.45" stop-color="#ffff28"/><stop offset="0.61" stop-color="#ffff46"/><stop offset="0.78" stop-color="#ffff6e"/><stop offset="0.95" stop-color="#ffff9d"/><stop offset="1" stop-color="#ffffae"/></radialGradient><linearGradient id="Áåçûìÿííûé_ãðàäèåíò_96-2" x1="642.75" y1="388.13" x2="642.75" y2="609.53" xlink:href="#Áåçûìÿííûé_ãðàäèåíò_96"/><linearGradient id="Áåçûìÿííûé_ãðàäèåíò_96-3" x1="642.75" y1="417.27" x2="642.75" y2="868.11" xlink:href="#Áåçûìÿííûé_ãðàäèåíò_96"/><linearGradient id="Áåçûìÿííûé_ãðàäèåíò_101" x1="642.75" y1="540.01" x2="642.75" y2="1284.23" gradientUnits="userSpaceOnUse"><stop offset="0" stop-color="#35acef"/><stop offset="0.18" stop-color="#47b6f1"/><stop offset="0.53" stop-color="#76d0f6"/><stop offset="1" stop-color="#bdf8fe"/></linearGradient><linearGradient id="Áåçûìÿííûé_ãðàäèåíò_43" x1="429.79" y1="41.74" x2="429.79" y2="210.78" gradientUnits="userSpaceOnUse"><stop offset="0" stop-color="#fff"/><stop offset="0.09" stop-color="#d7d7d7"/><stop offset="0.23" stop-color="#9e9e9e"/><stop offset="0.36" stop-color="#6e6e6e"/><stop offset="0.5" stop-color="#464646"/><stop offset="0.63" stop-color="#282828"/><stop offset="0.76" stop-color="#121212"/><stop offset="0.89" stop-color="#040404"/><stop offset="1"/></linearGradient><linearGradient id="Áåçûìÿííûé_ãðàäèåíò_43-2" x1="3953.08" y1="111.08" x2="3953.08" y2="250.73" gradientTransform="matrix(-1, 0, 0, 1, 4883.88, 0)" xlink:href="#Áåçûìÿííûé_ãðàäèåíò_43"/><linearGradient id="Áåçûìÿííûé_ãðàäèåíò_43-3" x1="4528.98" y1="294.48" x2="4528.98" y2="434.13" gradientTransform="matrix(-1, 0, 0, 1, 4883.88, 0)" xlink:href="#Áåçûìÿííûé_ãðàäèåíò_43"/><linearGradient id="Áåçûìÿííûé_ãðàäèåíò_43-4" x1="4041.36" y1="200.83" x2="4041.36" y2="333.2" gradientTransform="matrix(-1, 0, 0, 1, 4883.88, 0)" xlink:href="#Áåçûìÿííûé_ãðàäèåíò_43"/></defs><title>Asset 3</title><g class="cls-1"><g id="Layer_2" data-name="Layer 2"><g id="Layer_1-2" data-name="Layer 1"><rect class="cls-2" width="1285.5" height="857"/><circle class="cls-3" cx="842.57" cy="186.11" r="133.91" transform="translate(115.18 650.3) rotate(-45)"/><circle class="cls-4" cx="842.57" cy="186.11" r="50.85" transform="translate(115.18 650.3) rotate(-45)"/><polygon class="cls-5" points="1280.36 481.29 1280.36 507.34 1285.5 507.34 1285.5 857 0 857 0 503.92 22.28 503.92 22.28 422.5 48.85 422.5 48.85 401.93 98.69 401.93 140.55 421.43 140.55 428.26 179.97 443.93 179.97 468.78 199.68 468.78 199.68 445.64 254.14 445.64 289.92 460.21 301.02 460.21 312.74 466.21 365.17 466.21 416.5 498.56 416.5 531.34 446.5 531.34 446.5 524.48 480.78 524.48 480.78 533.05 496.2 533.05 496.2 549.34 533.05 549.34 533.05 540.77 547.62 540.77 547.62 546.77 560.48 546.77 560.48 489.35 605.04 489.35 605.04 482.49 622.18 482.49 622.18 491.06 634.18 491.06 634.18 472.21 686.46 472.21 686.46 489.35 693.31 489.35 693.31 589.62 718.17 589.62 718.17 571.28 729.45 564.25 752.45 571.28 752.45 577.71 819.17 542.48 887.85 542.48 887.85 498.97 930.2 487.63 1064.39 487.63 1064.39 540.77 1105.53 540.77 1105.53 566.48 1120.1 566.48 1120.1 485.06 1127.81 485.06 1127.81 466.21 1132.1 466.21 1132.1 460.21 1137.24 460.21 1137.24 454.21 1142.38 454.21 1142.38 441.11 1145.4 422.43 1151.81 441.72 1151.81 454.21 1156.95 454.21 1156.95 460.21 1162.09 460.21 1162.09 466.21 1167.23 466.21 1167.23 482.49 1174.95 482.49 1174.95 493.63 1198.94 493.63 1198.94 500.49 1216.41 500.49 1246.08 489.93 1246.08 478.08 1263.84 475.87 1280.36 481.29"/><polygon class="cls-6" points="0 680.46 4.93 680.46 12.86 673.51 12.86 668.46 31.71 668.46 31.71 567.33 51.42 567.33 51.42 557.05 74.56 557.05 74.56 542.48 91.29 542.48 123.41 542.48 123.41 535.63 128.55 535.63 128.55 533.05 123.41 533.05 123.41 522.77 128.55 522.77 128.55 520.2 123.41 520.2 123.41 507.34 128.55 507.34 128.55 490.77 134.09 485.92 137.98 485.92 137.98 478.43 169.33 447.05 199.68 477.43 199.68 485.92 207.26 485.92 212.54 490.38 212.54 509.92 214.25 509.92 214.25 522.77 209.97 522.77 209.97 525.34 214.25 525.34 214.25 535.63 209.97 535.63 209.97 539.91 214.25 539.91 214.25 547.62 224.53 547.62 224.53 616.61 236.34 620.92 257.1 666.11 257.1 614.14 279.13 606.12 290.52 617.07 290.52 676.17 300.81 676.17 300.81 540.12 351.94 526.55 399.36 525.72 399.36 478.43 442.48 466.21 456.78 466.21 456.78 461.16 478.21 464.45 478.21 471.03 508.2 474.11 508.2 614.47 513.34 614.47 513.34 547.52 537.34 541.35 537.34 537.65 530.48 536.88 530.48 535.18 537.89 531.79 539.43 491.69 539.62 531.94 545.05 534.57 545.05 537.65 539.91 537.96 539.91 540.12 572.48 545.05 572.48 606.76 580.19 606.76 580.19 587.04 605.04 587.04 605.04 601.8 614.47 610.13 614.47 505.63 627.32 505.63 627.32 471.35 636.75 471.35 636.75 435.36 648.75 435.36 648.75 424.21 658.18 424.21 658.18 413.93 663.32 413.93 663.32 409.65 678.74 409.65 678.74 413.93 680.46 413.93 680.46 424.21 689.03 424.21 689.03 435.36 701.03 435.36 701.03 468.78 713.02 468.78 713.02 500.49 728.45 500.49 728.45 505.63 737.88 505.63 737.88 535.63 740.45 535.63 740.45 559.62 755.02 559.62 755.02 542.48 809.87 542.48 809.87 559.62 828.72 559.62 828.72 569.05 838.91 569.05 853.57 545.05 853.57 508.04 873.36 488.3 892.99 507.89 892.99 584.53 911.38 601.61 920.42 601.61 920.42 594.76 928.13 594.76 928.13 539.19 933.27 534.87 933.27 530.25 965.36 488.49 972.7 488.49 972.7 609.33 976.98 609.33 976.98 438.95 1076 428.16 1100.39 430.32 1100.39 438.95 1109.08 433.64 1122.67 433.64 1122.67 503.11 1151.81 483.06 1151.81 468.78 1164.66 468.78 1164.66 483.37 1209.23 508.97 1209.23 513.34 1206.66 513.34 1206.66 535.63 1221.22 535.63 1221.22 542.48 1218.65 542.48 1218.65 653.89 1228.94 653.89 1228.94 677.89 1285.5 677.89 1285.5 857 0 857 0 680.46"/><polygon class="cls-7" points="0 564.76 5.14 564.76 5.14 557.6 20.43 551.46 39.42 557.74 39.42 568.29 71.86 579.33 85.7 579.33 85.7 573.33 95.98 573.33 95.98 579.33 103.7 579.33 103.7 571.62 113.5 571.62 120.84 574.16 120.84 579.33 128.3 579.33 147.4 584.58 147.4 669.32 152.55 669.32 152.55 645.21 161.17 637.73 172.26 647.34 172.26 669.32 189.99 669.32 221.11 673.34 221.11 467.92 219.39 467.92 219.39 459.35 233.96 459.35 233.96 445.64 291.15 445.64 311.09 457.18 311.09 461.07 316.23 461.07 316.23 450.78 347.9 450.78 354.8 457.18 354.8 461.45 404.5 504.59 404.5 514.87 401.93 511.8 401.93 634.18 426.79 634.18 426.79 621.7 432.13 616.9 439.64 623.57 439.64 636.75 466.33 636.75 535.63 685 535.63 675.12 559.09 666.57 569.9 676.46 569.9 695.03 594.64 695.03 631.61 695.03 631.61 669.32 641.52 669.32 656.46 716.25 656.46 721.59 680.46 721.59 680.46 711.44 706.59 628.18 715.6 628.18 715.6 645.32 869 645.32 869 578.97 918.17 535.63 937.56 535.63 937.56 525.55 951.46 518.61 964.13 524.75 964.13 538.2 984.69 538.2 984.69 530.48 999.28 530.48 1031.05 506.49 1043.83 506.49 1043.83 502.2 1056.04 502.2 1058.39 504.1 1058.39 506.49 1064.39 506.49 1064.39 497.92 1075.77 497.92 1080.68 500.36 1080.68 506.49 1083.18 506.49 1090.1 510.6 1090.1 535.63 1105.53 535.63 1105.53 506.32 1144.95 484.96 1144.95 478.55 1183.93 450.78 1236.65 450.78 1236.65 476.49 1263.22 476.49 1263.22 593.93 1285.5 586.98 1285.5 857 0 857 0 564.76"/><path class="cls-8" d="M.19,204s0-69.08,102.1-55.82c0,0,22.54-90.89,133.92-86.92s114,72.5,114,72.5,27.84-41.55,79.55-25.64,37.13,53.11,37.13,53.11,34.47-43.84,99.44-27.21,61,39.33,61,39.33,212.15-43.91,232,30.65Z"/><path class="cls-9" d="M1285.5,245.1s0-57.08-84.3-46.13c0,0-18.61-75.07-110.57-71.79S996.48,187,996.48,187s-23-34.32-65.68-21.18-30.65,43.85-30.65,43.85S871.68,173.5,818,187.24s-50.36,32.51-50.36,32.51S592.52,183.4,576.1,245.1Z"/><path class="cls-10" d="M709.6,428.5s0-57.08-84.3-46.13c0,0-18.61-75.07-110.57-71.79s-94.15,59.85-94.15,59.85-23-34.32-65.69-21.18-30.65,43.85-30.65,43.85-28.46-36.2-82.11-22.47-50.35,32.52-50.35,32.52S16.61,367.65.19,428.5Z"/><path class="cls-11" d="M1177.82,376.22s0-54.16-79.69-43.81c0,0-17.59-71.07-104.52-68s-89,56.52-89,56.52-21.74-32.46-62.1-20-29,41.44-29,41.44-26.9-34.23-77.61-21.25-47.61,30.94-47.61,30.94S522.73,318,507.2,376.22Z"/></g></g></g></svg>