<svg xmlns="http://www.w3.org/2000/svg" xmlns:xlink="http://www.w3.org/1999/xlink" viewBox="0 0 1280 853.33"><defs><style>.cls-1{isolation:isolate;}.cls-2{fill:url(#Áåçûìÿííûé_ãðàäèåíò_107);}.cls-3{opacity:0.3;fill:url(#Áåçûìÿííûé_ãðàäèåíò_31);}.cls-10,.cls-11,.cls-13,.cls-14,.cls-15,.cls-16,.cls-17,.cls-18,.cls-19,.cls-20,.cls-21,.cls-22,.cls-23,.cls-24,.cls-25,.cls-26,.cls-27,.cls-28,.cls-29,.cls-3,.cls-30,.cls-31,.cls-32,.cls-33,.cls-34,.cls-35,.cls-36,.cls-37,.cls-38,.cls-39,.cls-40,.cls-41,.cls-42,.cls-43,.cls-44,.cls-45,.cls-46,.cls-47,.cls-8,.cls-9{mix-blend-mode:screen;}.cls-4{fill:url(#Áåçûìÿííûé_ãðàäèåíò_37);}.cls-5{fill:url(#Áåçûìÿííûé_ãðàäèåíò_107-2);}.cls-6{fill:url(#Áåçûìÿííûé_ãðàäèåíò_107-3);}.cls-7{fill:url(#Áåçûìÿííûé_ãðàäèåíò_111);}.cls-8{fill:url(#Áåçûìÿííûé_ãðàäèåíò_43);}.cls-9{fill:url(#Áåçûìÿííûé_ãðàäèåíò_43-2);}.cls-10{fill:url(#Áåçûìÿííûé_ãðàäèåíò_43-3);}.cls-11{fill:url(#Áåçûìÿííûé_ãðàäèåíò_31-2);}.cls-12{fill:#ffffc5;}.cls-13{fill:url(#Áåçûìÿííûé_ãðàäèåíò_31-3);}.cls-14{fill:url(#Áåçûìÿííûé_ãðàäèåíò_31-4);}.cls-15{fill:url(#Áåçûìÿííûé_ãðàäèåíò_31-5);}.cls-16{fill:url(#Áåçûìÿííûé_ãðàäèåíò_31-6);}.cls-17{fill:url(#Áåçûìÿííûé_ãðàäèåíò_31-7);}.cls-18{fill:url(#Áåçûìÿííûé_ãðàäèåíò_31-8);}.cls-19{fill:url(#Áåçûìÿííûé_ãðàäèåíò_31-9);}.cls-20{fill:url(#Áåçûìÿííûé_ãðàäèåíò_31-10);}.cls-21{fill:url(#Áåçûìÿííûé_ãðàäèåíò_31-11);}.cls-22{fill:url(#Áåçûìÿííûé_ãðàäèåíò_31-12);}.cls-23{fill:url(#Áåçûìÿííûé_ãðàäèåíò_31-13);}.cls-24{fill:url(#Áåçûìÿííûé_ãðàäèåíò_31-14);}.cls-25{fill:url(#Áåçûìÿííûé_ãðàäèåíò_31-15);}.cls-26{fill:url(#Áåçûìÿííûé_ãðàäèåíò_31-16);}.cls-27{fill:url(#Áåçûìÿííûé_ãðàäèåíò_31-17);}.cls-28{fill:url(#Áåçûìÿííûé_ãðàäèåíò_31-18);}.cls-29{fill:url(#Áåçûìÿííûé_ãðàäèåíò_31-19);}.cls-30{fill:url(#Áåçûìÿííûé_ãðàäèåíò_31-20);}.cls-31{fill:url(#Áåçûìÿííûé_ãðàäèåíò_31-21);}.cls-32{fill:url(#Áåçûìÿííûé_ãðàäèåíò_31-22);}.cls-33{fill:url(#Áåçûìÿííûé_ãðàäèåíò_31-23);}.cls-34{fill:url(#Áåçûìÿííûé_ãðàäèåíò_31-24);}.cls-35{fill:url(#Áåçûìÿííûé_ãðàäèåíò_31-25);}.cls-36{fill:url(#Áåçûìÿííûé_ãðàäèåíò_31-26);}.cls-37{fill:url(#Áåçûìÿííûé_ãðàäèåíò_31-27);}.cls-38{fill:url(#Áåçûìÿííûé_ãðàäèåíò_31-28);}.cls-39{fill:url(#Áåçûìÿííûé_ãðàäèåíò_31-29);}.cls-40{fill:url(#Áåçûìÿííûé_ãðàäèåíò_31-30);}.cls-41{fill:url(#Áåçûìÿííûé_ãðàäèåíò_31-31);}.cls-42{fill:url(#Áåçûìÿííûé_ãðàäèåíò_31-32);}.cls-43{fill:url(#Áåçûìÿííûé_ãðàäèåíò_31-33);}.cls-44{fill:url(#Áåçûìÿííûé_ãðàäèåíò_31-34);}.cls-45{fill:url(#Áåçûìÿííûé_ãðàäèåíò_31-35);}.cls-46{fill:url(#Áåçûìÿííûé_ãðàäèåíò_31-36);}.cls-47{fill:url(#Áåçûìÿííûé_ãðàäèåíò_31-37);}</style><linearGradient id="Áåçûìÿííûé_ãðàäèåíò_107" x1="640" x2="640" y2="687.32" gradientUnits="userSpaceOnUse"><stop offset="0" stop-color="#443580"/><stop offset="0.33" stop-color="#4b4092"/><stop offset="0.98" stop-color="#5d5bc1"/><stop offset="1" stop-color="#5d5cc2"/></linearGradient><radialGradient id="Áåçûìÿííûé_ãðàäèåíò_31" cx="416.57" cy="148.62" r="133.34" gradientTransform="translate(227.1 -251.03) rotate(45)" gradientUnits="userSpaceOnUse"><stop offset="0" stop-color="#ffffc5"/><stop offset="0.19" stop-color="#caca9c"/><stop offset="0.59" stop-color="#5e5e49"/><stop offset="0.87" stop-color="#1a1a14"/><stop offset="1"/></radialGradient><radialGradient id="Áåçûìÿííûé_ãðàäèåíò_37" cx="414.72" cy="149.48" r="49.28" gradientUnits="userSpaceOnUse"><stop offset="0" stop-color="#ffffc5"/><stop offset="0.42" stop-color="#ffffc9"/><stop offset="0.89" stop-color="#ffffd7"/><stop offset="1" stop-color="#ffffdb"/></radialGradient><linearGradient id="Áåçûìÿííûé_ãðàäèåíò_107-2" x1="640" y1="407.48" x2="640" y2="652.23" xlink:href="#Áåçûìÿííûé_ãðàäèåíò_107"/><linearGradient id="Áåçûìÿííûé_ãðàäèåíò_107-3" x1="640" y1="497.85" x2="640" y2="899.52" xlink:href="#Áåçûìÿííûé_ãðàäèåíò_107"/><linearGradient id="Áåçûìÿííûé_ãðàäèåíò_111" x1="640" y1="537.7" x2="640" y2="1278.74" gradientUnits="userSpaceOnUse"><stop offset="0" stop-color="#3a2b71"/><stop offset="0.28" stop-color="#423683"/><stop offset="0.83" stop-color="#5652b2"/><stop offset="1" stop-color="#5d5cc2"/></linearGradient><linearGradient id="Áåçûìÿííûé_ãðàäèåíò_43" x1="479.65" y1="252.74" x2="479.65" y2="322.83" gradientUnits="userSpaceOnUse"><stop offset="0" stop-color="#fff"/><stop offset="0.09" stop-color="#d7d7d7"/><stop offset="0.23" stop-color="#9e9e9e"/><stop offset="0.36" stop-color="#6e6e6e"/><stop offset="0.5" stop-color="#464646"/><stop offset="0.63" stop-color="#282828"/><stop offset="0.76" stop-color="#121212"/><stop offset="0.89" stop-color="#040404"/><stop offset="1"/></linearGradient><linearGradient id="Áåçûìÿííûé_ãðàäèåíò_43-2" x1="3905.92" y1="166.92" x2="3905.92" y2="236.62" gradientTransform="matrix(-1, 0, 0, 1, 4878.38, 0)" xlink:href="#Áåçûìÿííûé_ãðàäèåíò_43"/><linearGradient id="Áåçûìÿííûé_ãðàäèåíò_43-3" x1="4298.88" y1="59.39" x2="4298.88" y2="129.85" gradientTransform="matrix(-1, 0, 0, 1, 4878.38, 0)" xlink:href="#Áåçûìÿííûé_ãðàäèåíò_43"/><radialGradient id="Áåçûìÿííûé_ãðàäèåíò_31-2" cx="1175.18" cy="383.29" r="17.35" gradientTransform="translate(615.23 -718.72) rotate(45)" xlink:href="#Áåçûìÿííûé_ãðàäèåíò_31"/><radialGradient id="Áåçûìÿííûé_ãðàäèåíò_31-3" cx="1225.1" cy="297.53" r="17.35" gradientTransform="translate(569.21 -779.13) rotate(45)" xlink:href="#Áåçûìÿííûé_ãðàäèåíò_31"/><radialGradient id="Áåçûìÿííûé_ãðàäèåíò_31-4" cx="1114.17" cy="144.36" r="17.35" gradientTransform="translate(428.41 -745.56) rotate(45)" xlink:href="#Áåçûìÿííûé_ãðàäèåíò_31"/><radialGradient id="Áåçûìÿííûé_ãðàäèåíò_31-5" cx="1242.6" cy="148.62" r="17.35" gradientTransform="translate(469.04 -835.12) rotate(45)" xlink:href="#Áåçûìÿííûé_ãðàäèåíò_31"/><radialGradient id="Áåçûìÿííûé_ãðàäèåíò_31-6" cx="1018.17" cy="267.06" r="13.33" gradientTransform="translate(487.05 -641.73) rotate(45)" xlink:href="#Áåçûìÿííûé_ãðàäèåíò_31"/><radialGradient id="Áåçûìÿííûé_ãðàäèåíò_31-7" cx="202.81" cy="56.71" r="13.33" gradientTransform="translate(99.5 -126.8) rotate(45)" xlink:href="#Áåçûìÿííûé_ãðàäèåíò_31"/><radialGradient id="Áåçûìÿííûé_ãðàäèåíò_31-8" cx="48.36" cy="278.58" r="13.33" gradientTransform="translate(211.15 47.4) rotate(45)" xlink:href="#Áåçûìÿííûé_ãðàäèåíò_31"/><radialGradient id="Áåçûìÿííûé_ãðàäèåíò_31-9" cx="148.2" cy="379.27" r="13.33" gradientTransform="translate(311.59 6.3) rotate(45)" xlink:href="#Áåçûìÿííûé_ãðàäèåíò_31"/><radialGradient id="Áåçûìÿííûé_ãðàäèåíò_31-10" cx="568.46" cy="449.24" r="13.33" gradientTransform="translate(484.16 -270.38) rotate(45)" xlink:href="#Áåçûìÿííûé_ãðàäèåíò_31"/><radialGradient id="Áåçûìÿííûé_ãðàäèåíò_31-11" cx="1161.96" cy="96.39" r="13.33" gradientTransform="translate(408.49 -793.39) rotate(45)" xlink:href="#Áåçûìÿííûé_ãðàäèåíò_31"/><radialGradient id="Áåçûìÿííûé_ãðàäèåíò_31-12" cx="978.06" cy="345.32" r="17.35" gradientTransform="translate(530.64 -590.45) rotate(45)" xlink:href="#Áåçûìÿííûé_ãðàäèåíò_31"/><radialGradient id="Áåçûìÿííûé_ãðàäèåíò_31-13" cx="823.61" cy="282.17" r="17.35" gradientTransform="translate(440.75 -499.73) rotate(45)" xlink:href="#Áåçûìÿííûé_ãðàäèåíò_31"/><radialGradient id="Áåçûìÿííûé_ãðàäèåíò_31-14" cx="946.06" cy="105.53" r="17.35" gradientTransform="translate(351.72 -638.06) rotate(45)" xlink:href="#Áåçûìÿííûé_ãðàäèåíò_31"/><radialGradient id="Áåçûìÿííûé_ãðàäèåíò_31-15" cx="823.61" cy="65" r="17.35" gradientTransform="translate(287.19 -563.34) rotate(45)" xlink:href="#Áåçûìÿííûé_ãðàäèåíò_31"/><radialGradient id="Áåçûìÿííûé_ãðàäèåíò_31-16" cx="663.61" cy="47.5" r="17.35" gradientTransform="translate(227.96 -455.33) rotate(45)" xlink:href="#Áåçûìÿííûé_ãðàäèåíò_31"/><radialGradient id="Áåçûìÿííûé_ãðàäèåíò_31-17" cx="507.88" cy="61.58" r="17.35" gradientTransform="translate(192.3 -341.09) rotate(45)" xlink:href="#Áåçûìÿííûé_ãðàäèåíò_31"/><radialGradient id="Áåçûìÿííûé_ãðàäèåíò_31-18" cx="81.21" cy="88.04" r="17.35" gradientTransform="translate(86.04 -31.64) rotate(45)" xlink:href="#Áåçûìÿííûé_ãðàäèåíò_31"/><radialGradient id="Áåçûìÿííûé_ãðàäèåíò_31-19" cx="862.01" cy="407.61" r="9.1" gradientTransform="translate(540.7 -490.15) rotate(45)" xlink:href="#Áåçûìÿííûé_ãðàäèåíò_31"/><radialGradient id="Áåçûìÿííûé_ãðàäèåíò_31-20" cx="866.7" cy="139.66" r="9.1" gradientTransform="translate(352.61 -571.94) rotate(45)" xlink:href="#Áåçûìÿííûé_ãðàäèåíò_31"/><radialGradient id="Áåçûìÿííûé_ãðàäèåíò_31-21" cx="775.82" cy="114.92" r="9.1" gradientTransform="translate(308.49 -514.93) rotate(45)" xlink:href="#Áåçûìÿííûé_ãðàäèåíò_31"/><radialGradient id="Áåçûìÿííûé_ãðàäèåíò_31-22" cx="498.92" cy="243.34" r="9.1" gradientTransform="translate(318.2 -281.51) rotate(45)" xlink:href="#Áåçûìÿííûé_ãðàäèåíò_31"/><radialGradient id="Áåçûìÿííûé_ãðàäèåíò_31-23" cx="681.1" cy="243.34" r="17.35" gradientTransform="translate(371.56 -410.34) rotate(45)" xlink:href="#Áåçûìÿííûé_ãðàäèåíò_31"/><radialGradient id="Áåçûìÿííûé_ãðàäèåíò_31-24" cx="577.42" cy="187.88" r="17.35" gradientTransform="translate(301.97 -353.27) rotate(45)" xlink:href="#Áåçûìÿííûé_ãðàäèåíò_31"/><radialGradient id="Áåçûìÿííûé_ãðàäèåíò_31-25" cx="185.32" cy="179.77" r="17.35" gradientTransform="translate(181.39 -78.38) rotate(45)" xlink:href="#Áåçûìÿííûé_ãðàäèåíò_31"/><radialGradient id="Áåçûìÿííûé_ãðàäèåíò_31-26" cx="259.56" cy="383.29" r="17.35" gradientTransform="translate(347.05 -71.27) rotate(45)" xlink:href="#Áåçûìÿííûé_ãðàäèåíò_31"/><radialGradient id="Áåçûìÿííûé_ãðàäèåíò_31-27" cx="472.46" cy="400.78" r="17.35" gradientTransform="translate(421.78 -216.69) rotate(45)" xlink:href="#Áåçûìÿííûé_ãðàäèåíò_31"/><radialGradient id="Áåçûìÿííûé_ãðàäèåíò_31-28" cx="771.32" cy="192.38" r="8.58" gradientTransform="translate(361.95 -489.05) rotate(45)" xlink:href="#Áåçûìÿííûé_ãðàäèåíò_31"/><radialGradient id="Áåçûìÿííûé_ãðàäèåíò_31-29" cx="606.2" cy="205.18" r="8.58" gradientTransform="translate(322.64 -368.55) rotate(45)" xlink:href="#Áåçûìÿííûé_ãðàäèåíò_31"/><radialGradient id="Áåçûìÿííûé_ãðàäèåíò_31-30" cx="136.44" cy="213.72" r="8.58" gradientTransform="translate(191.08 -33.88) rotate(45)" xlink:href="#Áåçûìÿííûé_ãðàäèåíò_31"/><radialGradient id="Áåçûìÿííûé_ãðàäèåíò_31-31" cx="401.4" cy="431.32" r="8.58" gradientTransform="translate(422.55 -157.5) rotate(45)" xlink:href="#Áåçûìÿííûé_ãðàäèåíò_31"/><radialGradient id="Áåçûìÿííûé_ãðàäèåíò_31-32" cx="202.57" cy="343" r="8.58" gradientTransform="translate(301.87 -42.78) rotate(45)" xlink:href="#Áåçûìÿííûé_ãðàäèåíò_31"/><radialGradient id="Áåçûìÿííûé_ãðàäèåíò_31-33" cx="20.38" cy="320.81" r="8.58" gradientTransform="translate(232.82 79.55) rotate(45)" xlink:href="#Áåçûìÿííûé_ãðàäèåíò_31"/><radialGradient id="Áåçûìÿííûé_ãðàäèåíò_31-34" cx="702.2" cy="78.89" r="8.58" gradientTransform="translate(261.45 -473.42) rotate(45)" xlink:href="#Áåçûìÿííûé_ãðàäèåíò_31"/><radialGradient id="Áåçûìÿííûé_ãðàäèåíò_31-35" cx="757.9" cy="362.38" r="9.1" gradientTransform="translate(478.23 -429.78) rotate(45)" xlink:href="#Áåçûìÿííûé_ãðàäèåíò_31"/><radialGradient id="Áåçûìÿííûé_ãðàäèåíò_31-36" cx="960.57" cy="175.08" r="9.1" gradientTransform="translate(405.14 -627.95) rotate(45)" xlink:href="#Áåçûìÿííûé_ãðàäèåíò_31"/><radialGradient id="Áåçûìÿííûé_ãðàäèåíò_31-37" cx="1069.8" cy="73.96" r="9.1" gradientTransform="translate(365.63 -734.8) rotate(45)" xlink:href="#Áåçûìÿííûé_ãðàäèåíò_31"/></defs><title>Asset 1</title><g class="cls-1"><g id="Layer_2" data-name="Layer 2"><g id="Layer_1-2" data-name="Layer 1"><rect class="cls-2" width="1280" height="853.33"/><circle class="cls-3" cx="416.57" cy="148.62" r="133.34" transform="translate(16.92 338.09) rotate(-45)"/><path class="cls-4" d="M434.92,177.78A45.38,45.38,0,0,1,403.47,99.7a50.64,50.64,0,1,0,60,67.93A45.16,45.16,0,0,1,434.92,177.78Z"/><polygon class="cls-5" points="1274.88 479.23 1274.88 505.17 1280 505.17 1280 853.33 0 853.33 0 501.76 22.19 501.76 22.19 420.69 48.64 420.69 48.64 400.21 98.27 400.21 139.95 419.63 139.95 426.43 179.2 442.03 179.2 466.77 198.83 466.77 198.83 443.73 253.05 443.73 288.68 458.24 299.73 458.24 311.4 464.21 363.61 464.21 414.72 496.43 414.72 529.07 444.59 529.07 444.59 522.24 478.72 522.24 478.72 530.77 494.08 530.77 494.08 546.99 530.77 546.99 530.77 538.45 545.28 538.45 545.28 544.43 558.08 544.43 558.08 487.25 602.45 487.25 602.45 480.43 619.52 480.43 619.52 488.96 631.47 488.96 631.47 470.19 683.52 470.19 683.52 487.25 690.35 487.25 690.35 587.09 715.09 587.09 715.09 568.84 726.33 561.84 749.23 568.84 749.23 575.24 815.66 540.16 884.05 540.16 884.05 496.83 926.22 485.55 1059.84 485.55 1059.84 538.45 1100.8 538.45 1100.8 564.05 1115.31 564.05 1115.31 482.99 1122.99 482.99 1122.99 464.21 1127.25 464.21 1127.25 458.24 1132.37 458.24 1132.37 452.27 1137.49 452.27 1137.49 439.23 1140.5 420.63 1146.88 439.83 1146.88 452.27 1152 452.27 1152 458.24 1157.12 458.24 1157.12 464.21 1162.24 464.21 1162.24 480.43 1169.92 480.43 1169.92 491.52 1193.81 491.52 1193.81 498.35 1211.21 498.35 1240.75 487.83 1240.75 476.03 1258.43 473.83 1274.88 479.23"/><polygon class="cls-6" points="0 677.55 4.91 677.55 12.8 670.63 12.8 665.6 31.57 665.6 31.57 564.91 51.2 564.91 51.2 554.67 74.24 554.67 74.24 540.16 90.9 540.16 122.88 540.16 122.88 533.33 128 533.33 128 530.77 122.88 530.77 122.88 520.53 128 520.53 128 517.97 122.88 517.97 122.88 505.17 128 505.17 128 488.67 133.51 483.84 137.39 483.84 137.39 476.38 168.61 445.14 198.83 475.39 198.83 483.84 206.37 483.84 211.63 488.29 211.63 507.73 213.33 507.73 213.33 520.53 209.07 520.53 209.07 523.09 213.33 523.09 213.33 533.33 209.07 533.33 209.07 537.6 213.33 537.6 213.33 545.28 223.57 545.28 223.57 613.97 235.33 618.27 256 663.26 256 611.51 277.94 603.52 289.28 614.43 289.28 673.28 299.52 673.28 299.52 537.81 350.43 524.29 397.65 523.47 397.65 476.38 440.59 464.21 454.83 464.21 454.83 459.19 476.16 462.46 476.16 469.01 506.03 472.09 506.03 611.84 511.15 611.84 511.15 545.18 535.04 539.03 535.04 535.35 528.21 534.58 528.21 532.89 535.59 529.51 537.12 489.59 537.31 529.67 542.72 532.28 542.72 535.35 537.6 535.66 537.6 537.81 570.03 542.72 570.03 604.16 577.71 604.16 577.71 584.53 602.45 584.53 602.45 599.23 611.84 607.52 611.84 503.47 624.64 503.47 624.64 469.33 634.03 469.33 634.03 433.49 645.97 433.49 645.97 422.4 655.36 422.4 655.36 412.16 660.48 412.16 660.48 407.89 675.84 407.89 675.84 412.16 677.55 412.16 677.55 422.4 686.08 422.4 686.08 433.49 698.03 433.49 698.03 466.77 709.97 466.77 709.97 498.35 725.33 498.35 725.33 503.47 734.72 503.47 734.72 533.33 737.28 533.33 737.28 557.23 751.79 557.23 751.79 540.16 806.4 540.16 806.4 557.23 825.17 557.23 825.17 566.61 835.32 566.61 849.92 542.72 849.92 505.87 869.62 486.21 889.17 505.71 889.17 582.03 907.49 599.04 916.48 599.04 916.48 592.21 924.16 592.21 924.16 536.88 929.28 532.59 929.28 527.98 961.23 486.4 968.53 486.4 968.53 606.72 972.8 606.72 972.8 437.08 1071.4 426.33 1095.68 428.48 1095.68 437.08 1104.34 431.79 1117.87 431.79 1117.87 500.95 1146.88 480.99 1146.88 466.77 1159.68 466.77 1159.68 481.3 1204.05 506.79 1204.05 511.15 1201.49 511.15 1201.49 533.33 1216 533.33 1216 540.16 1213.44 540.16 1213.44 651.09 1223.68 651.09 1223.68 674.99 1280 674.99 1280 853.33 0 853.33 0 677.55"/><polygon class="cls-7" points="0 562.35 5.12 562.35 5.12 555.22 20.34 549.1 39.25 555.35 39.25 565.86 71.56 576.85 85.33 576.85 85.33 570.88 95.57 570.88 95.57 576.85 103.25 576.85 103.25 569.17 113.01 569.17 120.32 571.71 120.32 576.85 127.75 576.85 146.77 582.08 146.77 666.45 151.89 666.45 151.89 642.45 160.48 635 171.52 644.57 171.52 666.45 189.18 666.45 220.16 670.46 220.16 465.92 218.45 465.92 218.45 457.39 232.96 457.39 232.96 443.73 289.9 443.73 309.76 455.23 309.76 459.09 314.88 459.09 314.88 448.85 346.41 448.85 353.28 455.23 353.28 459.48 402.77 502.43 402.77 512.67 400.21 509.61 400.21 631.47 424.96 631.47 424.96 619.04 430.29 614.26 437.76 620.9 437.76 634.03 464.34 634.03 533.33 682.07 533.33 672.23 556.7 663.72 567.47 673.56 567.47 692.05 592.09 692.05 628.91 692.05 628.91 666.45 638.77 666.45 653.65 713.18 653.65 718.51 677.55 718.51 677.55 708.4 703.57 625.49 712.53 625.49 712.53 642.56 865.28 642.56 865.28 576.49 914.24 533.33 933.55 533.33 933.55 523.3 947.39 516.39 960 522.51 960 535.89 980.48 535.89 980.48 528.21 995.01 528.21 1026.64 504.32 1039.36 504.32 1039.36 500.05 1051.52 500.05 1053.87 501.94 1053.87 504.32 1059.84 504.32 1059.84 495.79 1071.17 495.79 1076.05 498.22 1076.05 504.32 1078.54 504.32 1085.44 508.41 1085.44 533.33 1100.8 533.33 1100.8 504.16 1140.05 482.88 1140.05 476.5 1178.86 448.85 1231.36 448.85 1231.36 474.45 1257.81 474.45 1257.81 591.38 1280 584.47 1280 853.33 0 853.33 0 562.35"/><path class="cls-8" d="M301.42,320s0-28.63,42.36-23.13c0,0,9.35-37.7,55.56-36.05s47.31,30.09,47.31,30.09,11.55-17.24,33-10.64,15.41,22,15.41,22,14.3-18.19,41.25-11.29,25.31,16.29,25.31,16.29,88-18,96.27,12.69Z"/><path class="cls-9" d="M1150.69,233.81s0-28.42-42.36-22.91c0,0-9.35-37.59-55.56-35.94s-47.31,30.14-47.31,30.14-11.55-17.21-33-10.61-15.4,22-15.4,22-14.3-18.19-41.26-11.28-25.3,16.08-25.3,16.08-88-18.25-96.27,12.47Z"/><path class="cls-10" d="M757.73,152.75s0-28.85-42.36-23.35c0,0-9.35-37.8-55.56-36.15s-47.31,30-47.31,30S601,106,579.49,112.62s-15.4,22-15.4,22-14.3-18.19-41.26-11.29-25.3,16.5-25.3,16.5-88-17.82-96.27,12.9Z"/><circle class="cls-11" cx="1175.18" cy="383.29" r="17.35" transform="translate(73.18 943.24) rotate(-45)"/><path class="cls-12" d="M1184.28,383.52s-.08,0-.1,0h-.41c-.28,0-.55,0-.82.08s-.53.09-.8.15-.51.13-.77.21-.5.17-.74.27-.48.22-.71.34-.46.25-.68.39-.43.29-.64.44-.41.33-.6.5-.38.36-.55.54-.35.39-.51.59-.32.42-.46.63-.28.44-.41.67-.24.47-.35.7-.2.49-.29.74-.16.51-.22.76-.12.53-.17.79-.07.55-.09.82c0,.06,0,.12,0,.18s0,.06,0,.09a.28.28,0,0,1,0,.09.07.07,0,0,1,0,.06s0,0,0,0a.31.31,0,0,1,0-.08.28.28,0,0,1,0-.09.66.66,0,0,0,0-.14c0-.11,0-.22,0-.33s0-.21,0-.32a3.06,3.06,0,0,0,0-.32,1.65,1.65,0,0,0-.06-.32c0-.11,0-.21-.07-.32s0-.2-.08-.31a1.71,1.71,0,0,0-.09-.3,2.81,2.81,0,0,0-.1-.31c0-.1-.07-.19-.11-.29l-.12-.3c0-.09-.08-.19-.13-.28a430251979813.39,430251979813.39,0,0,1-.28-.56c-.06-.09-.11-.18-.16-.27l-.17-.27-.17-.25-.19-.26-.19-.24-.2-.24a2.2,2.2,0,0,0-.2-.23,2.39,2.39,0,0,0-.22-.23l-.22-.22-.23-.21-.23-.2-.25-.2-.24-.18-.26-.18-.26-.17-.27-.16-.27-.16-.28-.14-.29-.13-.29-.13-.29-.11-.3-.11-.3-.1-.31-.08-.31-.07-.32-.07-.32,0-.32,0c-.11,0,0,0-.07,0l-.06,0v-.09a9.61,9.61,0,0,0,8.69-9.17c0,.28-.11.56-.09.83s0,.54.06.8a7.14,7.14,0,0,0,.15.78c.07.26.14.51.23.75s.19.49.3.73.23.46.36.69.27.44.42.65.31.42.47.62.34.39.52.57.37.36.57.53.4.33.61.48.43.29.65.42.45.26.68.38l.72.32c.25.09.5.18.75.25a7.2,7.2,0,0,0,.77.19,7.82,7.82,0,0,0,.8.13,7.67,7.67,0,0,0,.82.05h.17S1184.25,383.48,1184.28,383.52Z"/><circle class="cls-13" cx="1225.1" cy="297.53" r="17.35" transform="translate(148.44 953.42) rotate(-45)"/><path class="cls-12" d="M1234.2,297.76s-.08,0-.1,0h-.41c-.28,0-.55,0-.82.08s-.53.09-.8.15-.51.13-.77.21-.5.17-.74.27-.48.22-.71.34-.46.25-.68.39-.43.29-.64.44-.41.33-.6.5-.38.36-.55.54-.35.39-.51.59-.32.42-.46.63-.28.44-.41.67-.24.47-.35.7-.2.49-.29.74-.16.51-.22.76-.12.53-.17.79-.07.55-.09.82c0,.06,0,.12,0,.18s0,.06,0,.09a.28.28,0,0,1,0,.09.07.07,0,0,1,0,.06s0,0,0,0a.31.31,0,0,1,0-.08.28.28,0,0,1,0-.09.66.66,0,0,0,0-.14c0-.11,0-.22,0-.33s0-.21,0-.32a3.06,3.06,0,0,0,0-.32,1.65,1.65,0,0,0-.06-.32c0-.11,0-.21-.07-.32s0-.2-.08-.31a1.71,1.71,0,0,0-.09-.3,2.81,2.81,0,0,0-.1-.31c0-.1-.07-.19-.11-.29l-.12-.3c0-.09-.08-.19-.13-.28a3442015838609,3442015838609,0,0,0-.28-.56c-.06-.09-.11-.18-.16-.27l-.17-.27-.17-.25-.19-.26-.19-.24-.2-.24a2.2,2.2,0,0,0-.2-.23,2.39,2.39,0,0,0-.22-.23l-.22-.22-.23-.21-.23-.2-.25-.2-.24-.18-.26-.18-.26-.17-.27-.16-.27-.16-.28-.14-.29-.13-.29-.13-.29-.11-.3-.11-.3-.1-.31-.08-.31-.07-.32-.07-.32-.05-.32,0a1.33,1.33,0,0,0-.28,0l-.28,0v-.09c4.27-.21,8.85-4.22,8.91-9.17a7.61,7.61,0,0,0,0,.83c0,.27,0,.54.1.8s.11.52.18.78a6,6,0,0,0,.25.75c.09.25.19.49.3.73s.24.46.37.69.27.44.42.65.31.42.47.62.34.39.52.57.37.36.57.53.4.33.61.48.43.29.65.42.45.26.68.38l.72.32c.25.09.5.18.75.25a7.2,7.2,0,0,0,.77.19,7.82,7.82,0,0,0,.8.13,7.67,7.67,0,0,0,.82.05h.17S1234.17,297.72,1234.2,297.76Z"/><circle class="cls-14" cx="1114.17" cy="144.36" r="17.35" transform="translate(224.26 830.12) rotate(-45)"/><path class="cls-12" d="M1123.27,144.59s-.08,0-.11,0h-.41a7.4,7.4,0,0,0-.81.08,7,7,0,0,0-.8.14c-.26.06-.52.13-.77.21l-.74.28c-.25.1-.48.21-.72.33s-.45.26-.67.4a8.43,8.43,0,0,0-1.24.94c-.19.17-.38.35-.56.54l-.51.59a7.17,7.17,0,0,0-.45.63c-.15.22-.28.44-.41.67s-.24.46-.35.7-.2.49-.29.74-.16.5-.23.76-.12.53-.16.79-.07.54-.09.81a1.21,1.21,0,0,0,0,.19.28.28,0,0,0,0,.09s0,.06,0,.08a.1.1,0,0,1,0,.07h0l0-.09v-.08c0-.05,0-.09,0-.14l0-.33,0-.32c0-.11,0-.22,0-.33l-.06-.32c0-.1,0-.21-.07-.31s0-.21-.08-.31l-.09-.31c0-.1-.06-.2-.1-.3s-.07-.2-.11-.3l-.12-.29c0-.09-.09-.19-.13-.29l-.14-.28-.15-.27-.15-.27-.17-.27-.18-.26-.18-.25c-.06-.08-.12-.17-.19-.25l-.2-.24-.21-.23-.21-.22-.22-.22-.23-.21-.24-.2-.24-.2-.25-.19-.25-.18-.26-.17-.27-.16-.28-.15-.27-.14-.29-.14-.29-.12-.29-.12-.3-.1-.31-.1-.3-.08-.32-.08-.31-.06-.32-.06-.33,0-.7,0-.71,0v-.09c6-.21,9.28-4.21,9.34-9.16,0,.28.2.55.23.83s.16.53.21.8.16.52.23.78.18.5.28.75a5.83,5.83,0,0,0,.32.72,7.55,7.55,0,0,0,.37.69,7.39,7.39,0,0,0,.42.66,7.16,7.16,0,0,0,.48.61c.16.2.34.39.52.58a7,7,0,0,0,.57.52,7.16,7.16,0,0,0,.61.48,6.51,6.51,0,0,0,.64.43c.23.14.46.26.69.38a7.8,7.8,0,0,0,.72.31c.24.1.49.18.75.26s.51.14.77.19.53.1.8.13.55,0,.82.05h.17S1123.24,144.54,1123.27,144.59Z"/><circle class="cls-15" cx="1242.6" cy="148.62" r="17.35" transform="translate(258.86 922.18) rotate(-45)"/><path class="cls-12" d="M1251.7,148.86s-.09,0-.11,0h-.14l-.27,0c-.27,0-.55,0-.82.07s-.53.09-.79.15-.52.13-.77.21a6.77,6.77,0,0,0-.75.28c-.24.1-.48.21-.71.33s-.46.25-.68.39-.43.29-.64.45-.4.32-.59.49-.38.36-.56.55a7.19,7.19,0,0,0-.51.59c-.16.2-.31.41-.46.63s-.28.44-.4.66a6.67,6.67,0,0,0-.35.71,6.52,6.52,0,0,0-.29.73,6.82,6.82,0,0,0-.23.77,6.91,6.91,0,0,0-.16.79,7.46,7.46,0,0,0-.1.81c0,.06,0,.12,0,.18v.1s0,.05,0,.08a.36.36,0,0,1,0,.07s0,0,0,0,0,0,0-.08,0-.06,0-.09v-.13l0-.33c0-.11,0-.22,0-.33s0-.21,0-.32l-.06-.32c0-.1,0-.21-.07-.31s0-.21-.08-.31l-.09-.31-.1-.3c0-.1-.08-.2-.11-.3l-.12-.29c0-.1-.09-.19-.13-.29s-.09-.19-.14-.28l-.15-.28c0-.09-.1-.18-.16-.27l-.16-.26-.18-.26-.18-.25c-.06-.09-.13-.17-.19-.25l-.2-.24-.21-.23-.21-.23-.22-.21-.23-.22-.24-.2-.24-.19-.25-.19-.26-.18-.26-.17-.27-.16-.27-.15-.28-.15-.28-.13-.29-.13-.3-.11-.3-.11-.3-.09-.31-.09-.31-.07-.32-.07-.32,0-.32,0c-.11,0,0,0-.06,0l-.07,0v-.09a9.6,9.6,0,0,0,8.69-9.16c0,.27-.11.55-.08.82s0,.54,0,.81.08.52.15.78.14.5.23.75.19.48.3.72a7.49,7.49,0,0,0,.36.69c.14.22.27.44.42.66s.31.41.48.61a7,7,0,0,0,.52.57c.18.19.37.36.56.53s.4.33.61.48.43.29.65.43a7.55,7.55,0,0,0,.69.37c.23.12.47.22.71.32s.5.18.75.25.52.14.78.2.53.09.8.12.54.05.82.06h.17A.13.13,0,0,1,1251.7,148.86Z"/><circle class="cls-16" cx="1018.17" cy="267.06" r="13.33" transform="translate(109.38 798.17) rotate(-45)"/><path class="cls-12" d="M1025.16,267.24s-.06,0-.08,0h-.31l-.63.06a6,6,0,0,0-.61.11l-.6.16-.57.21-.54.26a4.4,4.4,0,0,0-.52.3c-.17.11-.34.22-.5.34s-.31.25-.46.39-.29.27-.42.41a5.58,5.58,0,0,0-.39.46,4.29,4.29,0,0,0-.36.48c-.11.17-.21.34-.31.51s-.18.36-.27.54-.15.38-.22.57a4,4,0,0,0-.17.59,4.29,4.29,0,0,0-.13.6c0,.21-.06.42-.07.63a.61.61,0,0,0,0,.14v.07s0,0,0,.06a.08.08,0,0,1,0,0s0,0,0,0a.14.14,0,0,1,0-.06.15.15,0,0,1,0-.07V274a2.29,2.29,0,0,1,0-.25l0-.25a1.87,1.87,0,0,0,0-.25c0-.08,0-.17,0-.25l-.06-.24-.06-.24a2,2,0,0,0-.07-.23,800377602455.39,800377602455.39,0,0,1-.16-.46l-.09-.23-.1-.22-.11-.21c0-.08-.07-.15-.11-.22l-.12-.21a1.37,1.37,0,0,1-.13-.2l-.14-.2-.14-.19a1.33,1.33,0,0,0-.14-.19l-.16-.18-.16-.18-.16-.18-.17-.16-.18-.17-.18-.15-.18-.15-.2-.14-.19-.14-.2-.13-.21-.13-.21-.11L1014,268l-.22-.11-.22-.09-.23-.09-.23-.08-.23-.08-.24-.06-.24-.06-.24-.05-.25,0-.25,0-.2,0h-.2v-.07a7.41,7.41,0,0,0,6.83-7c0,.21,0,.42,0,.63a6.17,6.17,0,0,0,.08.62c0,.2.08.4.13.6s.12.39.19.58.15.37.24.56.18.35.28.53.21.34.32.5l.36.47.4.44.44.41a5.32,5.32,0,0,0,.47.36,5.39,5.39,0,0,0,.5.33,5.29,5.29,0,0,0,.52.29,5.55,5.55,0,0,0,.56.24,5.49,5.49,0,0,0,.57.2q.3.09.6.15a6,6,0,0,0,.61.09c.21,0,.42,0,.63,0h.13S1025.14,267.2,1025.16,267.24Z"/><circle class="cls-17" cx="202.81" cy="56.71" r="13.33" transform="translate(19.3 160.02) rotate(-45)"/><path class="cls-12" d="M209.8,56.89s-.06,0-.08,0h-.31l-.63.06-.61.11c-.2,0-.4.1-.6.17l-.57.21a5.29,5.29,0,0,0-.54.25l-.52.3-.5.35-.46.38a5.55,5.55,0,0,0-.42.42,4.19,4.19,0,0,0-.39.45q-.19.24-.36.48c-.11.17-.21.34-.31.52s-.18.35-.27.54-.15.37-.22.56a4,4,0,0,0-.17.59,4.13,4.13,0,0,0-.13.61,6.18,6.18,0,0,0-.07.62.66.66,0,0,0,0,.14v.07s0,0,0,.07l0,0h0a.14.14,0,0,1,0-.07.13.13,0,0,1,0-.06v-.11a2.11,2.11,0,0,1,0-.25l0-.25a2.17,2.17,0,0,0,0-.25c0-.08,0-.16,0-.24l-.06-.25-.06-.23a2.17,2.17,0,0,0-.07-.24,1920906245355,1920906245355,0,0,1-.16-.46l-.09-.22c0-.08-.07-.15-.1-.22l-.11-.22-.11-.21-.12-.21a2.39,2.39,0,0,1-.13-.21l-.14-.19a2.43,2.43,0,0,0-.14-.2l-.14-.19-.16-.18-.16-.18a1.29,1.29,0,0,0-.16-.17l-.17-.17-.18-.16-.18-.16-.18-.15-.2-.14-.19-.14-.2-.13-.21-.12-.21-.12-.21-.11-.22-.1-.22-.1-.23-.09-.23-.08-.23-.07-.24-.07-.24-.06-.24,0-.25,0-.25,0c-.08,0,.1,0,0,0s0,0,0,0v-.07c2.56-.16,6.57-3.24,6.61-7,0,.22-.11.43-.09.64s0,.41,0,.62a5.59,5.59,0,0,0,.11.59c.06.2.1.39.17.58s.15.38.23.56.18.36.28.53.21.34.32.5l.36.47a5.76,5.76,0,0,0,.41.44,4.17,4.17,0,0,0,.43.41c.15.13.31.25.47.37l.5.33a5.21,5.21,0,0,0,.52.28l.56.25a5.44,5.44,0,0,0,.57.19q.3.09.6.15a6,6,0,0,0,.61.1c.21,0,.42,0,.63,0h.13S209.78,56.86,209.8,56.89Z"/><circle class="cls-18" cx="48.36" cy="278.58" r="13.33" transform="translate(-182.82 115.79) rotate(-45)"/><path class="cls-12" d="M55.35,278.76s-.07,0-.08,0H55q-.31,0-.63.06c-.2,0-.41.06-.61.11l-.59.16-.57.21-.55.26a5.39,5.39,0,0,0-.52.3l-.49.34a5.58,5.58,0,0,0-.46.39c-.15.13-.29.27-.43.41l-.39.46a5.92,5.92,0,0,0-.35.48c-.11.17-.21.34-.31.51s-.19.36-.27.54-.16.38-.22.57a5.76,5.76,0,0,0-.18.59q-.08.3-.12.6c0,.21-.06.42-.08.63v.14a.17.17,0,0,0,0,.07.13.13,0,0,1,0,.06.07.07,0,0,1,0,.05s0,0,0,0l0-.06v-.07a.34.34,0,0,0,0-.1,4440335239695.58,4440335239695.58,0,0,1,0-.5c0-.09,0-.17,0-.25s0-.17-.05-.25a2,2,0,0,0,0-.24l-.06-.24c0-.08,0-.15-.07-.23s0-.16-.08-.23-.05-.16-.08-.23a2.29,2.29,0,0,0-.1-.23,2.14,2.14,0,0,0-.1-.22l-.1-.21-.12-.22-.12-.21L47,282l-.13-.2-.14-.19-.15-.19-.15-.18-.16-.18-.16-.18-.17-.16-.18-.17-.18-.15-.19-.15a1.33,1.33,0,0,0-.19-.14L45,280l-.21-.13a1.37,1.37,0,0,0-.2-.13l-.21-.11-.22-.11-.21-.11-.23-.09-.22-.09-.23-.08-.24-.08-.23-.06-.24-.06-.25-.05-.24,0-.25,0c-.09,0,.1,0,0,0s0,0,0,0v-.07a7.21,7.21,0,0,0,6.62-7c0,.21-.12.42-.1.63s0,.42,0,.62,0,.4.11.6a5.54,5.54,0,0,0,.17.58c.07.19.14.37.23.56l.28.53a7,7,0,0,0,.68,1c.13.15.26.3.4.44l.44.41a4.17,4.17,0,0,0,.47.36,5.25,5.25,0,0,0,.49.33c.18.11.35.2.53.29a5.38,5.38,0,0,0,.55.24,7.36,7.36,0,0,0,1.17.35c.21,0,.41.07.62.09s.42,0,.63.05h.13A.09.09,0,0,1,55.35,278.76Z"/><circle class="cls-19" cx="148.2" cy="379.27" r="13.33" transform="translate(-224.78 215.88) rotate(-45)"/><path class="cls-12" d="M155.19,379.45s-.07,0-.08,0h-.32q-.31,0-.63.06l-.61.11a5.72,5.72,0,0,0-.59.17l-.57.21a5.45,5.45,0,0,0-.55.25l-.52.3c-.17.11-.33.23-.49.35s-.31.25-.46.38a5.66,5.66,0,0,0-.43.42q-.19.21-.39.45l-.35.48c-.11.17-.21.34-.31.52a4.53,4.53,0,0,0-.27.54,5.42,5.42,0,0,0-.22.56,5.76,5.76,0,0,0-.18.59,6,6,0,0,0-.12.61,6.17,6.17,0,0,0-.08.62v.14a.2.2,0,0,0,0,.07.17.17,0,0,1,0,.07.11.11,0,0,1,0,.05h0a.64.64,0,0,1,0-.07v-.06a.41.41,0,0,0,0-.11,2220167619859.95,2220167619859.95,0,0,1,0-.5,2.17,2.17,0,0,1,0-.25c0-.08,0-.16-.05-.24a2.21,2.21,0,0,0-.05-.25l-.06-.23c0-.08,0-.16-.07-.24l-.08-.23-.08-.23a2.14,2.14,0,0,0-.1-.22,1.47,1.47,0,0,0-.1-.22c0-.08-.07-.15-.1-.22l-.12-.21-.12-.21a2.39,2.39,0,0,0-.13-.21,2.14,2.14,0,0,0-.13-.19,2.43,2.43,0,0,0-.14-.2l-.15-.19-.15-.18-.16-.18-.16-.17-.17-.17-.18-.16-.18-.16-.19-.15-.19-.14-.19-.14-.21-.13-.2-.12-.21-.12-.22-.11-.21-.1-.23-.1-.22-.09-.23-.08-.24-.07-.23-.07-.24-.06-.25,0-.24-.05-.25,0-.42,0-.41,0v-.07c3.41-.16,7-3.24,7-7,0,.22.1.43.12.64s.09.41.13.62.11.4.16.59.13.39.2.58.16.38.25.56a7.53,7.53,0,0,0,1,1.5,7.22,7.22,0,0,0,.84.85,5.9,5.9,0,0,0,.47.37l.49.33a5.36,5.36,0,0,0,.53.28l.55.25a9,9,0,0,0,1.17.34c.21,0,.41.08.62.1s.42,0,.63,0h.13A.12.12,0,0,1,155.19,379.45Z"/><circle class="cls-20" cx="568.46" cy="449.24" r="13.33" transform="translate(-151.16 533.54) rotate(-45)"/><path class="cls-12" d="M575.46,449.42s-.07,0-.09,0h-.31l-.63.05c-.2,0-.41.07-.61.12a5.69,5.69,0,0,0-.59.16,4.79,4.79,0,0,0-.57.21,5.52,5.52,0,0,0-.55.26,5.39,5.39,0,0,0-.52.3l-.49.34a5.81,5.81,0,0,0-.46.38c-.15.14-.29.27-.43.42s-.27.3-.39.45-.24.32-.35.49a4.33,4.33,0,0,0-.31.51q-.15.27-.27.54a4.84,4.84,0,0,0-.23.57c-.06.19-.12.38-.17.58s-.09.41-.13.61-.05.42-.07.62,0,.1,0,.14v.08s0,0,0,.06a.06.06,0,0,1,0,0h0a.14.14,0,0,1,0-.06s0-.05,0-.07a.34.34,0,0,1,0-.1c0-.09,0-.17,0-.26l0-.25c0-.08,0-.16,0-.25a2,2,0,0,0,0-.24c0-.08,0-.16-.05-.24a2.17,2.17,0,0,0-.07-.24l-.06-.24a1.55,1.55,0,0,1-.08-.23l-.09-.23-.09-.22a2.14,2.14,0,0,0-.1-.22,2.26,2.26,0,0,0-.11-.22,2.12,2.12,0,0,0-.11-.21l-.12-.21-.13-.2-.13-.2-.14-.19-.15-.19-.15-.19-.16-.18c-.06-.05-.11-.11-.17-.17s-.11-.11-.17-.17l-.17-.16-.18-.15-.19-.15-.19-.15-.2-.14-.2-.13-.2-.12-.21-.12-.22-.11-.22-.1-.22-.1-.23-.09-.23-.08-.23-.07-.24-.07-.24-.05-.24-.05-.25,0a1.9,1.9,0,0,0-.25,0l-.2,0h-.2v-.07a7.39,7.39,0,0,0,6.83-7c0,.21,0,.42,0,.63s0,.41.08.62.08.4.14.6.11.39.18.58.15.37.24.55.18.36.28.53.21.34.32.5.24.32.37.48a5.48,5.48,0,0,0,.4.44l.43.4a5.45,5.45,0,0,0,.47.37,5.39,5.39,0,0,0,.5.33l.53.29a5.38,5.38,0,0,0,.55.24l.57.2.6.15c.2,0,.41.07.61.09a4.44,4.44,0,0,0,.63,0h.13S575.43,449.39,575.46,449.42Z"/><circle class="cls-21" cx="1161.96" cy="96.39" r="13.33" transform="translate(272.17 849.86) rotate(-45)"/><path class="cls-12" d="M1169,96.57s-.07,0-.08,0h-.32q-.32,0-.63.06l-.61.11a5.72,5.72,0,0,0-.59.17q-.29.09-.57.21a5.45,5.45,0,0,0-.55.25l-.52.3c-.17.11-.33.23-.49.35s-.31.25-.46.38a5.66,5.66,0,0,0-.43.42q-.2.21-.39.45l-.35.48c-.11.17-.21.34-.31.52a4.53,4.53,0,0,0-.27.54,5.42,5.42,0,0,0-.22.56,5.76,5.76,0,0,0-.18.59,6,6,0,0,0-.12.61,6.17,6.17,0,0,0-.08.62v.14a.2.2,0,0,0,0,.07.17.17,0,0,1,0,.07.11.11,0,0,1,0,0h0a.64.64,0,0,1,0-.07v-.06s0-.07,0-.11a2.11,2.11,0,0,0,0-.25,2.11,2.11,0,0,0,0-.25,2.17,2.17,0,0,1,0-.25c0-.08,0-.16,0-.24a2.21,2.21,0,0,0,0-.25l-.06-.23c0-.08,0-.16-.07-.24l-.08-.23-.08-.23a2.14,2.14,0,0,0-.1-.22,1.47,1.47,0,0,0-.1-.22c0-.08-.07-.15-.1-.22l-.12-.21-.12-.21a2.39,2.39,0,0,0-.13-.21,2.14,2.14,0,0,0-.13-.19l-.14-.2-.15-.19-.15-.18-.16-.18-.16-.17-.17-.17-.18-.16-.18-.16-.19-.15-.19-.14-.19-.14-.21-.13-.2-.12-.21-.12-.22-.11-.21-.1-.23-.1-.22-.09-.23-.08-.24-.07-.23-.07-.24-.06-.25,0-.24,0-.25,0c-.09,0,.1,0,0,0s0,0,0,0v-.07c2.56-.16,6.57-3.24,6.62-7,0,.22-.12.43-.1.64s0,.41,0,.62a6,6,0,0,0,.28,1.17,5.48,5.48,0,0,0,.23.56c.09.18.18.36.28.53a7,7,0,0,0,.68,1,7.22,7.22,0,0,0,.84.85,5.9,5.9,0,0,0,.47.37l.49.33c.18.1.35.2.53.28l.55.25a9,9,0,0,0,1.17.34c.21,0,.41.08.62.1s.42,0,.63,0h.13A.12.12,0,0,1,1169,96.57Z"/><circle class="cls-22" cx="978.06" cy="345.32" r="17.35" transform="translate(42.29 792.73) rotate(-45)"/><path class="cls-12" d="M987.16,345.55s-.08,0-.1,0h-.41a7.34,7.34,0,0,0-.82.08,7.45,7.45,0,0,0-.8.14c-.26.06-.51.13-.77.21l-.74.28c-.24.1-.48.21-.71.33s-.46.26-.68.4-.43.28-.64.44a7.22,7.22,0,0,0-.6.5,7,7,0,0,0-.55.54c-.18.19-.35.39-.51.59a7.26,7.26,0,0,0-.46.63c-.14.22-.28.44-.41.67s-.24.46-.35.7-.2.49-.29.74-.16.5-.22.76-.12.53-.17.79-.07.54-.09.81c0,.06,0,.13,0,.19s0,.06,0,.09a.19.19,0,0,1,0,.08.1.1,0,0,1,0,.07h0a.29.29,0,0,1,0-.09.22.22,0,0,1,0-.08.66.66,0,0,0,0-.14c0-.11,0-.22,0-.33a3.11,3.11,0,0,0,0-.32c0-.11,0-.22,0-.33a2,2,0,0,0-.06-.32c0-.1,0-.21-.07-.31s0-.21-.08-.31a1.81,1.81,0,0,0-.09-.31c0-.1-.06-.2-.1-.3s-.07-.2-.11-.3l-.12-.29c0-.09-.08-.19-.13-.29s-.09-.18-.14-.28-.09-.18-.14-.27l-.16-.27-.17-.27c0-.09-.11-.17-.17-.26s-.12-.17-.19-.25-.12-.17-.19-.25l-.2-.24-.2-.23-.22-.22a2.28,2.28,0,0,0-.22-.22l-.23-.21-.23-.2a2.43,2.43,0,0,0-.25-.2l-.24-.19-.26-.18-.26-.17-.27-.16-.27-.15-.28-.14-.29-.14-.29-.12-.29-.12-.3-.1-.3-.1-.31-.08-.31-.08-.32-.06-.32-.06-.32,0c-.11,0,0,0-.07,0a.13.13,0,0,1-.06,0v-.09a9.6,9.6,0,0,0,8.69-9.16c0,.28-.11.55-.09.83s0,.53.06.8a7.14,7.14,0,0,0,.15.78c.07.25.14.5.23.75a7.76,7.76,0,0,0,.3.72,7.49,7.49,0,0,0,.36.69,7.39,7.39,0,0,0,.42.66c.15.21.31.42.47.61s.34.39.52.58.37.36.57.52.4.33.61.48a6.64,6.64,0,0,0,.65.43c.22.14.45.26.68.38s.48.22.72.31.5.18.75.26.51.14.77.19.54.1.8.13.55,0,.82.05H987S987.13,345.5,987.16,345.55Z"/><circle class="cls-23" cx="823.61" cy="282.17" r="17.35" transform="translate(41.71 665.02) rotate(-45)"/><path class="cls-12" d="M832.71,282.4s-.08,0-.11,0h-.41c-.27,0-.54,0-.81.08s-.54.09-.8.15-.52.13-.77.21-.5.17-.74.27-.48.22-.72.34-.45.25-.67.39-.44.29-.64.44-.41.33-.6.5-.38.36-.56.54-.34.39-.5.59-.32.42-.46.63-.28.44-.41.67-.24.47-.35.7-.2.49-.29.74-.16.51-.23.76-.12.53-.16.79-.07.55-.09.82a1.09,1.09,0,0,0,0,.18.28.28,0,0,0,0,.09s0,.06,0,.09a.07.07,0,0,1,0,.06s0,0,0,0l0-.08v-.09c0-.05,0-.09,0-.14l0-.33,0-.32c0-.11,0-.22-.05-.32l-.06-.32c0-.11,0-.21-.07-.32s0-.2-.08-.31l-.09-.3a2.81,2.81,0,0,0-.1-.31c0-.1-.07-.19-.11-.29l-.12-.3-.13-.28c0-.1-.09-.19-.14-.28l-.15-.28-.15-.27-.17-.27-.18-.25-.18-.26-.19-.24-.2-.24-.21-.23-.21-.23-.22-.22-.23-.21-.24-.2-.24-.2-.25-.18-.25-.18-.26-.17-.27-.16-.28-.16-.27-.14-.29-.13-.29-.13-.29-.11-.3-.11-.31-.1-.3-.08-.32-.07-.31-.07-.32,0-.33,0a4,4,0,0,0-.49,0l-.49,0v-.09a9.34,9.34,0,0,0,9.12-9.17,7.55,7.55,0,0,0,.13.83c0,.27.11.54.16.8s.13.52.2.78.17.51.26.75.2.49.31.73.24.46.37.69.27.44.42.65.31.42.48.62.34.39.52.57.37.36.57.53a7.16,7.16,0,0,0,.61.48c.21.15.42.29.64.42s.46.26.69.38.47.22.72.32.49.18.75.25a6.66,6.66,0,0,0,.77.19,7.4,7.4,0,0,0,.8.13,7.52,7.52,0,0,0,.82.05h.17S832.68,282.36,832.71,282.4Z"/><circle class="cls-24" cx="946.06" cy="105.53" r="17.35" transform="translate(202.48 699.88) rotate(-45)"/><path class="cls-12" d="M955.16,105.76s-.08,0-.1,0h-.41c-.28,0-.55,0-.82.08s-.53.09-.8.15-.51.13-.77.21-.5.17-.74.27-.48.22-.71.34-.46.25-.68.39-.43.29-.64.44-.41.33-.6.5-.38.36-.55.54-.35.39-.51.59-.32.42-.46.63-.28.44-.41.67l-.35.7c-.1.25-.2.49-.29.74s-.16.51-.22.76-.12.53-.17.79-.07.55-.09.82c0,.06,0,.12,0,.18s0,.06,0,.09a.28.28,0,0,1,0,.09.07.07,0,0,1,0,.06s0,0,0,0a.31.31,0,0,1,0-.08.28.28,0,0,1,0-.09.66.66,0,0,0,0-.14c0-.11,0-.22,0-.33s0-.21,0-.32a3.06,3.06,0,0,0,0-.32,1.65,1.65,0,0,0-.06-.32c0-.11,0-.21-.07-.32s0-.2-.08-.31a1.71,1.71,0,0,0-.09-.3,2.81,2.81,0,0,0-.1-.31c0-.1-.07-.19-.11-.29l-.12-.3c0-.09-.08-.19-.13-.28a2.44,2.44,0,0,0-.14-.28,2.44,2.44,0,0,0-.14-.28c-.06-.09-.11-.18-.16-.27l-.17-.27-.17-.25-.19-.26-.19-.24-.2-.24a2.2,2.2,0,0,0-.2-.23,2.39,2.39,0,0,0-.22-.23c-.07-.07-.14-.15-.22-.22l-.23-.21-.23-.2-.25-.2-.24-.18-.26-.18-.26-.17-.27-.16-.27-.16-.28-.14-.29-.13-.29-.13-.29-.11-.3-.11-.3-.1-.31-.08-.31-.07-.32-.07-.32,0-.32,0c-.11,0,.25,0,.15,0s.14,0,.14,0v-.09a9.42,9.42,0,0,0,8.48-9.17c0,.28-.22.56-.19.83s-.05.54,0,.8,0,.52.12.78.13.51.22.75a6.59,6.59,0,0,0,.3.73c.11.23.22.46.35.69s.27.44.42.65.31.42.47.62.34.39.52.57.37.36.57.53.4.33.61.48.43.29.65.42.45.26.68.38l.72.32c.25.09.5.18.75.25a7.2,7.2,0,0,0,.77.19,7.82,7.82,0,0,0,.8.13,7.67,7.67,0,0,0,.82,0H955S955.13,105.72,955.16,105.76Z"/><circle class="cls-25" cx="823.61" cy="65" r="17.35" transform="translate(195.27 601.42) rotate(-45)"/><path class="cls-12" d="M832.71,65.23s-.08,0-.11,0h-.41a7.4,7.4,0,0,0-.81.08,7,7,0,0,0-.8.14c-.26.06-.52.13-.77.21l-.74.28c-.25.1-.48.21-.72.33s-.45.26-.67.4a8.43,8.43,0,0,0-1.24.94c-.19.17-.38.35-.56.54s-.34.39-.5.59a5.64,5.64,0,0,0-.46.63c-.15.22-.28.44-.41.67s-.24.46-.35.7-.2.49-.29.74-.16.5-.23.76-.12.53-.16.79-.07.54-.09.81a1.21,1.21,0,0,0,0,.19.28.28,0,0,0,0,.09s0,.06,0,.08a.1.1,0,0,1,0,.07h0l0-.09v-.08s0-.09,0-.14l0-.33,0-.32c0-.11,0-.22-.05-.33l-.06-.32c0-.1,0-.21-.07-.31s0-.21-.08-.31l-.09-.31c0-.1-.06-.2-.1-.3s-.07-.2-.11-.3l-.12-.29c0-.09-.09-.19-.13-.29l-.14-.28-.15-.27-.15-.27-.17-.27-.18-.26-.18-.25c-.06-.08-.12-.17-.19-.25l-.2-.24-.21-.23-.21-.22-.22-.22-.23-.21-.24-.2-.24-.2-.25-.19-.25-.18-.26-.17-.27-.16-.28-.15-.27-.14-.29-.14-.29-.12-.29-.12-.3-.1-.31-.1-.3-.08-.32-.08-.31-.06-.32-.06-.33,0-.49,0-.49,0v-.09A9.33,9.33,0,0,0,823.2,56a7.94,7.94,0,0,0,.13.83c0,.26.11.53.16.8s.13.52.2.78.17.5.26.75a7.8,7.8,0,0,0,.31.72,7.55,7.55,0,0,0,.37.69,7.39,7.39,0,0,0,.42.66,7.16,7.16,0,0,0,.48.61c.16.2.34.39.52.58a7,7,0,0,0,.57.52,7.16,7.16,0,0,0,.61.48,6.51,6.51,0,0,0,.64.43c.23.14.46.26.69.38a7.8,7.8,0,0,0,.72.31c.24.1.49.18.75.26s.51.14.77.19.53.1.8.13.55,0,.82,0h.17S832.68,65.18,832.71,65.23Z"/><circle class="cls-26" cx="663.61" cy="47.5" r="17.35" transform="translate(160.78 483.16) rotate(-45)"/><path class="cls-12" d="M672.71,47.74s-.08,0-.11,0h-.14l-.27,0c-.27,0-.54,0-.81.07s-.54.09-.8.15-.52.13-.77.21a6.61,6.61,0,0,0-.74.28c-.25.1-.48.21-.72.33s-.45.25-.67.39a7.33,7.33,0,0,0-.64.45c-.21.16-.41.32-.6.49s-.38.36-.56.55-.34.38-.5.59a5.64,5.64,0,0,0-.46.63c-.15.21-.28.44-.41.66s-.24.47-.35.71-.2.48-.29.73-.16.51-.23.77-.12.52-.16.79-.07.54-.09.81a1.09,1.09,0,0,0,0,.18.34.34,0,0,0,0,.1s0,0,0,.08a.11.11,0,0,1,0,.07,0,0,0,0,1,0,0l0-.08v-.09s0-.09,0-.13l0-.33,0-.33c0-.11,0-.21-.05-.32l-.06-.32c0-.1,0-.21-.07-.31a2.81,2.81,0,0,0-.08-.31l-.09-.31c0-.1-.06-.2-.1-.3s-.07-.2-.11-.3l-.12-.29c0-.1-.09-.19-.13-.29s-.09-.19-.14-.28l-.15-.28-.15-.27c-.06-.09-.11-.18-.17-.26l-.18-.26-.18-.25a2.35,2.35,0,0,0-.19-.25l-.2-.24-.21-.23-.21-.23-.22-.21-.23-.22-.24-.2-.24-.19-.25-.19-.25-.18-.26-.17-.27-.16-.28-.15-.27-.15-.29-.13-.29-.13-.29-.11-.3-.11-.31-.09-.3-.09L656,48l-.31-.07-.32-.05-.33,0-.27,0-.28,0v-.09c4.26-.21,8.84-4.22,8.9-9.16,0,.27,0,.55,0,.82s.06.54.11.81a7.31,7.31,0,0,0,.18.78q.1.38.24.75c.09.24.2.48.31.72a7.49,7.49,0,0,0,.36.69c.14.22.28.44.43.66a6.62,6.62,0,0,0,.47.61,7,7,0,0,0,.52.57,9.44,9.44,0,0,0,1.18,1l.64.43c.23.13.46.26.69.37a7.84,7.84,0,0,0,.72.32c.24.09.49.18.75.25s.51.14.77.2.53.09.8.12.55,0,.82.06h.17S672.68,47.69,672.71,47.74Z"/><circle class="cls-27" cx="507.88" cy="61.58" r="17.35" transform="translate(105.21 377.16) rotate(-45)"/><path class="cls-12" d="M517,61.82s-.09,0-.11,0h-.14l-.27,0c-.27,0-.55,0-.82.07s-.53.09-.79.15-.52.13-.77.21a6.77,6.77,0,0,0-.75.28c-.24.1-.48.21-.71.33s-.46.25-.68.39-.43.29-.64.45-.4.32-.59.49-.38.36-.56.55a7.19,7.19,0,0,0-.51.59c-.16.2-.31.41-.46.63s-.28.44-.4.66a6.67,6.67,0,0,0-.35.71,6.52,6.52,0,0,0-.29.73,6.82,6.82,0,0,0-.23.77,6.91,6.91,0,0,0-.16.79,7.46,7.46,0,0,0-.1.81c0,.06,0,.12,0,.18v.1s0,0,0,.08a.36.36,0,0,1,0,.07s0,0,0,0,0,0,0-.08,0-.06,0-.09v-.13l0-.33c0-.11,0-.22,0-.33s0-.21,0-.32l-.06-.32c0-.1-.05-.21-.07-.31s-.05-.21-.08-.31l-.09-.31c0-.1-.07-.2-.1-.3l-.11-.3-.12-.29c-.05-.1-.09-.19-.13-.29s-.09-.19-.14-.28l-.15-.28c-.05-.09-.1-.18-.16-.27l-.16-.26-.18-.26-.18-.25c-.06-.09-.13-.17-.19-.25l-.2-.24-.21-.23-.21-.23-.22-.21-.23-.22-.24-.2L504,63.8l-.25-.19-.26-.18-.26-.17-.27-.16-.27-.15-.28-.15-.28-.13-.29-.13-.3-.11-.3-.11-.3-.09-.31-.09-.31-.07L500,62l-.32,0-.32,0c-.11,0,0,0-.06,0l-.07,0v-.09a9.6,9.6,0,0,0,8.69-9.16c0,.27-.11.55-.08.82s0,.54.05.81.08.52.15.78.14.5.23.75.19.48.3.72a7.49,7.49,0,0,0,.36.69c.14.22.27.44.42.66s.31.41.48.61a7,7,0,0,0,.52.57c.18.19.37.36.56.53s.4.33.61.48.43.29.65.43a7.55,7.55,0,0,0,.69.37c.23.12.47.22.71.32s.5.18.75.25.52.14.78.2.53.09.8.12.54.05.82.06h.17A.13.13,0,0,1,517,61.82Z"/><circle class="cls-28" cx="81.21" cy="88.04" r="17.35" transform="translate(-38.46 83.21) rotate(-45)"/><path class="cls-12" d="M90.31,88.27s-.08,0-.11,0h-.41a7.4,7.4,0,0,0-.81.08,7,7,0,0,0-.8.14c-.26.06-.52.13-.77.21l-.74.28c-.25.1-.48.21-.72.33s-.45.26-.67.4a8.43,8.43,0,0,0-1.24.94c-.19.17-.38.35-.56.54s-.34.39-.5.59a5.64,5.64,0,0,0-.46.63c-.15.22-.28.44-.41.67s-.24.46-.35.7-.2.49-.29.74-.16.5-.23.76-.12.53-.16.79-.07.54-.09.81a1.21,1.21,0,0,0,0,.19.28.28,0,0,0,0,.09s0,.06,0,.08a.1.1,0,0,1,0,.07h0l0-.09v-.08s0-.09,0-.14,0-.22,0-.33l0-.32c0-.11,0-.22,0-.33l-.06-.32c0-.1,0-.21-.07-.31s0-.21-.08-.31l-.09-.31c0-.1-.06-.2-.1-.3s-.07-.2-.11-.3l-.12-.29c0-.09-.09-.19-.13-.29l-.14-.28-.15-.27c0-.09-.1-.19-.15-.27l-.17-.27-.18-.26c0-.08-.12-.17-.18-.25s-.12-.17-.19-.25l-.2-.24-.21-.23-.21-.22L78,90.86l-.23-.21-.24-.2-.24-.2-.25-.19-.25-.18-.26-.17-.27-.16L76,89.4l-.27-.14-.29-.14L75.14,89l-.29-.12-.3-.1-.31-.1-.3-.08-.32-.08-.31-.06L73,88.4l-.33,0c-.11,0,0,0-.06,0l-.07,0v-.09a9.6,9.6,0,0,0,8.7-9.16,7.8,7.8,0,0,0-.09.83c0,.26,0,.53,0,.8s.08.52.15.78.14.5.24.75a5.74,5.74,0,0,0,.3.72,7.49,7.49,0,0,0,.36.69,7.39,7.39,0,0,0,.42.66,7.05,7.05,0,0,0,.47.61c.17.2.34.39.52.58a7,7,0,0,0,.57.52,7.16,7.16,0,0,0,.61.48,6.51,6.51,0,0,0,.64.43c.23.14.46.26.69.38a7.8,7.8,0,0,0,.72.31c.24.1.49.18.75.26s.51.14.77.19.53.1.8.13.55,0,.82,0h.17S90.28,88.22,90.31,88.27Z"/><circle class="cls-29" cx="862.01" cy="407.61" r="9.1" transform="translate(-35.75 728.92) rotate(-45)"/><path class="cls-12" d="M866.78,407.73s0,0,0,0h-.22l-.43,0-.41.08-.41.11-.39.14-.37.18-.36.21-.33.23-.32.26c-.1.09-.19.19-.29.29a3.73,3.73,0,0,0-.26.3l-.25.33-.21.36c-.06.12-.13.24-.18.36a3.12,3.12,0,0,0-.15.39,3,3,0,0,0-.12.4,3.15,3.15,0,0,0-.09.42c0,.14,0,.28-.05.42v.19a.08.08,0,0,1,0,0h0l0-.05v-.11c0-.06,0-.12,0-.18a254414670651.56,254414670651.56,0,0,1,0-.34l0-.16c0-.06,0-.11,0-.17s0-.11,0-.16,0-.11,0-.16a1,1,0,0,0,0-.16l-.06-.16-.06-.15-.07-.15-.07-.15-.08-.14-.08-.14-.09-.14-.09-.14-.1-.13a1.13,1.13,0,0,0-.1-.13,1.47,1.47,0,0,1-.1-.13l-.11-.12-.11-.12-.12-.11-.12-.11-.12-.11-.13-.1-.13-.1-.14-.09-.13-.09-.14-.09-.15-.08-.14-.07-.15-.07-.15-.07-.16-.06-.16-.05-.16-.05-.16-.05-.16,0-.17,0-.16,0-.17,0-.39,0h-.39v0a5.11,5.11,0,0,0,4.91-4.81c0,.15.12.29.14.43a2.88,2.88,0,0,0,.11.42c0,.14.09.28.13.41a2.7,2.7,0,0,0,.14.4c.05.13.11.25.17.38s.12.24.19.36a4,4,0,0,0,.23.34c.07.11.16.22.24.33l.28.3a2.61,2.61,0,0,0,.3.27,2.51,2.51,0,0,0,.32.25,4,4,0,0,0,.34.23,3.07,3.07,0,0,0,.36.2l.37.16.4.14.4.1c.14,0,.28.05.42.06a3.11,3.11,0,0,0,.43,0h.09S866.77,407.71,866.78,407.73Z"/><circle class="cls-30" cx="866.7" cy="139.66" r="9.1" transform="translate(155.1 653.76) rotate(-45)"/><path class="cls-12" d="M871.48,139.78s-.05,0-.06,0h-.21a3,3,0,0,0-.43,0l-.42.07L870,140c-.13.05-.26.09-.38.15l-.38.17-.35.21a4,4,0,0,0-.34.23l-.31.26a4,4,0,0,0-.29.29,2.61,2.61,0,0,0-.27.31,2,2,0,0,0-.24.33,2.5,2.5,0,0,0-.21.35c-.07.12-.13.24-.19.37s-.11.25-.15.38a3.57,3.57,0,0,0-.12.4l-.09.42c0,.14,0,.28,0,.43a.28.28,0,0,0,0,.09v.09a.06.06,0,0,1,0,0s0,0,0,0a.06.06,0,0,1,0,0,.09.09,0,0,1,0-.05v-.07c0-.06,0-.11,0-.17a1.11,1.11,0,0,1,0-.17l0-.17,0-.17a.94.94,0,0,0,0-.16,1,1,0,0,0,0-.17c0-.05,0-.1,0-.16l-.06-.16-.06-.15-.06-.16a1,1,0,0,0-.07-.15l-.07-.14a1.09,1.09,0,0,0-.08-.15,1,1,0,0,0-.08-.14l-.09-.14-.09-.14-.09-.13a.64.64,0,0,1-.1-.13l-.11-.12-.11-.12-.11-.12-.12-.12-.12-.11-.12-.1-.13-.11-.13-.09-.13-.1-.14-.09-.14-.08-.14-.08-.15-.08-.15-.07-.15-.06-.16-.06-.15-.06-.16-.05-.16,0-.17,0-.16,0-.17,0-.17,0h-.35v-.05a4.91,4.91,0,0,0,4.7-4.81,3.25,3.25,0,0,0,0,.44,4.35,4.35,0,0,0,.16.83,3,3,0,0,0,.13.39,2.54,2.54,0,0,0,.16.38c.06.12.12.25.19.36s.14.24.22.35a3.92,3.92,0,0,0,.25.32l.27.3.3.28.32.25.34.22.36.2.38.16a2.58,2.58,0,0,0,.39.14l.41.1.41.07.44,0h.08S871.46,139.76,871.48,139.78Z"/><circle class="cls-31" cx="775.82" cy="114.92" r="9.1" transform="translate(145.98 582.25) rotate(-45)"/><path class="cls-12" d="M780.6,115s-.05,0-.06,0h-.21l-.43,0a5.77,5.77,0,0,0-.83.19l-.38.14a2.64,2.64,0,0,0-.38.18l-.35.2a4.15,4.15,0,0,0-.34.24,3.88,3.88,0,0,0-.31.26,3.83,3.83,0,0,0-.29.28,2.61,2.61,0,0,0-.27.31,3.43,3.43,0,0,0-.24.33,3.24,3.24,0,0,0-.21.35c-.07.12-.13.25-.19.37s-.11.26-.15.39a2.64,2.64,0,0,0-.12.4l-.09.41c0,.14,0,.29,0,.43a.28.28,0,0,0,0,.09v0s0,0,0,0a0,0,0,0,1,0,0h0a.09.09,0,0,1,0,0,.06.06,0,0,1,0,0v-.08s0-.11,0-.17a1,1,0,0,1,0-.17l0-.17,0-.17a.94.94,0,0,0,0-.16.75.75,0,0,0,0-.16c0-.06,0-.11,0-.16l-.06-.16-.06-.16-.06-.15a253299947422.92,253299947422.92,0,0,0-.14-.3,1.09,1.09,0,0,0-.08-.15l-.08-.14-.09-.14-.09-.13-.09-.13-.1-.13-.11-.13-.11-.12-.11-.12-.12-.11-.12-.11-.12-.11-.13-.1-.13-.1-.13-.09-.14-.09-.14-.09-.14-.08-.15-.07-.15-.07-.15-.07-.16-.06-.15-.06-.16,0-.16,0-.17,0-.16,0-.17,0-.17,0c-.06,0,.09,0,0,0h0v0a4.73,4.73,0,0,0,4.49-4.8c0,.14-.09.29-.08.43s0,.28,0,.42,0,.28.07.41.07.27.12.4.09.25.15.37.12.25.19.37.14.23.22.34a3.92,3.92,0,0,0,.25.32q.13.17.27.3l.3.28a3.92,3.92,0,0,0,.32.25,4,4,0,0,0,.34.23l.36.19.38.17.39.13a2.73,2.73,0,0,0,.41.1l.41.07.44,0h.08S780.58,115,780.6,115Z"/><circle class="cls-32" cx="498.92" cy="243.34" r="9.1" transform="translate(-25.94 424.06) rotate(-45)"/><path class="cls-12" d="M503.69,243.46s0,0-.06,0h-.21a3.13,3.13,0,0,0-.43,0l-.42.07-.4.11-.39.15-.37.17-.36.21a4,4,0,0,0-.34.23l-.31.26a4,4,0,0,0-.29.29l-.27.31q-.12.15-.24.33a4.05,4.05,0,0,0-.21.35,2.53,2.53,0,0,0-.18.37c-.06.12-.11.25-.16.38l-.12.4c0,.14-.06.28-.08.42s0,.28-.05.43,0,.06,0,.09v.09s0,0,0,0h0v-.16a1,1,0,0,0,0-.17c0-.06,0-.12,0-.17a1.11,1.11,0,0,1,0-.17,1,1,0,0,0,0-.17l0-.16a1,1,0,0,1,0-.17c0-.05,0-.1-.05-.16a.75.75,0,0,1,0-.16l-.06-.15-.07-.16-.06-.15-.08-.14-.07-.15-.09-.14a1,1,0,0,0-.08-.14l-.1-.14-.09-.13a1.47,1.47,0,0,1-.1-.13l-.11-.12-.1-.12-.12-.12-.11-.12-.12-.11-.13-.1-.12-.11-.13-.09-.14-.1-.14-.09-.14-.08-.14-.08L496,244l-.15-.07-.15-.06-.15-.06-.16-.06-.16,0-.16,0-.16,0-.17,0-.17,0-.17,0h-.35v-.05a4.91,4.91,0,0,0,4.7-4.81,3.25,3.25,0,0,0,0,.44,3,3,0,0,0,.06.42c0,.14.06.27.1.41s.08.26.13.39.1.26.16.38.12.25.19.36l.22.35.25.32.28.3a3.83,3.83,0,0,0,.29.28l.32.25.34.22.36.2.38.16.39.14.41.1.42.07.43,0h.09S503.67,243.44,503.69,243.46Z"/><circle class="cls-33" cx="681.1" cy="243.34" r="17.35" transform="translate(27.42 552.89) rotate(-45)"/><path class="cls-12" d="M690.2,243.58s-.08,0-.1,0H690l-.27,0c-.28,0-.55,0-.82.07s-.53.09-.8.15-.51.13-.77.21a6.61,6.61,0,0,0-.74.28c-.24.1-.48.21-.71.33s-.46.25-.68.39-.43.29-.64.45-.41.32-.6.49-.38.36-.55.55a9.5,9.5,0,0,0-1,1.22c-.14.21-.28.44-.41.66s-.24.47-.35.71-.2.48-.29.73-.16.51-.22.77-.12.52-.17.79-.07.54-.09.81c0,.06,0,.12,0,.18s0,.07,0,.1a.25.25,0,0,1,0,.08.11.11,0,0,1,0,.07l0,0a.19.19,0,0,1,0-.08.28.28,0,0,1,0-.09.57.57,0,0,0,0-.13c0-.11,0-.22,0-.33s0-.22,0-.33,0-.21-.05-.32a1.8,1.8,0,0,0-.06-.32c0-.1,0-.21-.07-.31a2.81,2.81,0,0,0-.08-.31,1.58,1.58,0,0,0-.09-.31c0-.1-.06-.2-.1-.3s-.07-.2-.11-.3l-.12-.29c0-.1-.08-.19-.13-.29s-.09-.19-.14-.28-.09-.19-.14-.28-.11-.18-.16-.27-.11-.18-.17-.26a13.33,13.33,0,0,0-.55-.76l-.2-.24a2.2,2.2,0,0,0-.2-.23l-.22-.23-.22-.21a2.39,2.39,0,0,0-.23-.22l-.23-.2-.25-.19-.24-.19-.26-.18-.26-.17-.27-.16-.27-.15-.28-.15-.29-.13-.29-.13-.29-.11-.3-.11-.3-.09-.31-.09-.31-.07-.32-.07-.32,0-.32,0-.49,0-.5,0v-.09a9.34,9.34,0,0,0,9.12-9.16c0,.27.1.55.13.82s.11.54.16.81.13.52.2.78.17.5.26.75a12.5,12.5,0,0,0,.68,1.41c.14.22.28.44.43.66s.3.41.47.61.34.39.52.57a7.15,7.15,0,0,0,.57.53c.2.17.4.33.61.48s.43.29.65.43.45.26.68.37.48.22.72.32.5.18.75.25.51.14.77.2l.8.12.82.06h.17S690.17,243.53,690.2,243.58Z"/><circle class="cls-34" cx="577.42" cy="187.88" r="17.35" transform="translate(36.27 463.33) rotate(-45)"/><path class="cls-12" d="M586.52,188.11s-.08,0-.1,0H586a7.34,7.34,0,0,0-.82.08,7.45,7.45,0,0,0-.8.14c-.26.06-.51.13-.77.21l-.74.28c-.24.1-.48.21-.71.33s-.46.26-.68.4-.43.28-.64.44a7.22,7.22,0,0,0-.6.5,7,7,0,0,0-.55.54c-.18.19-.35.39-.51.59a7.26,7.26,0,0,0-.46.63c-.14.22-.28.44-.41.67s-.24.46-.35.7-.2.49-.29.74-.16.5-.22.76-.12.53-.17.79-.07.54-.09.81c0,.06,0,.13,0,.19s0,.06,0,.09a.19.19,0,0,1,0,.08.1.1,0,0,1,0,.07h0a.29.29,0,0,1,0-.09.22.22,0,0,1,0-.08.66.66,0,0,0,0-.14c0-.11,0-.22,0-.33a3.11,3.11,0,0,0,0-.32c0-.11,0-.22,0-.33a2,2,0,0,0-.06-.32c0-.1,0-.21-.07-.31s-.05-.21-.08-.31a1.81,1.81,0,0,0-.09-.31c0-.1-.06-.2-.1-.3s-.07-.2-.11-.3l-.12-.29c0-.09-.08-.19-.13-.29l-.14-.28c0-.09-.09-.18-.14-.27s-.11-.19-.16-.27l-.17-.27c-.05-.09-.11-.17-.17-.26s-.12-.17-.19-.25-.12-.17-.19-.25l-.2-.24-.2-.23-.22-.22-.22-.22-.23-.21-.23-.2a2.43,2.43,0,0,0-.25-.2l-.24-.19-.26-.18-.26-.17-.27-.16-.27-.15-.28-.14-.29-.14-.29-.12-.29-.12-.3-.1-.3-.1-.31-.08-.31-.08-.32-.06-.32-.06-.32,0-.28,0-.28,0v-.09a9.15,9.15,0,0,0,8.91-9.16,7.67,7.67,0,0,0,0,.83c0,.26,0,.53.1.8s.11.52.18.78a7.32,7.32,0,0,0,.25.75,7.76,7.76,0,0,0,.3.72,7.55,7.55,0,0,0,.37.69,7.39,7.39,0,0,0,.42.66c.15.21.31.42.47.61s.34.39.52.58a7,7,0,0,0,.57.52c.2.17.4.33.61.48a6.64,6.64,0,0,0,.65.43c.22.14.45.26.68.38s.48.22.72.31.5.18.75.26.51.14.77.19.54.1.8.13.55,0,.82,0h.17S586.49,188.06,586.52,188.11Z"/><circle class="cls-35" cx="185.32" cy="179.77" r="17.35" transform="translate(-72.84 183.69) rotate(-45)"/><path class="cls-12" d="M194.42,180s-.09,0-.11,0h-.41c-.27,0-.55,0-.82.08s-.53.09-.79.15-.52.13-.77.21-.5.17-.75.27-.48.22-.71.34-.46.25-.68.39l-.64.44-.59.5c-.2.17-.38.36-.56.54s-.35.39-.51.59l-.46.63c-.14.22-.28.44-.4.67a8.75,8.75,0,0,0-.64,1.44,7.32,7.32,0,0,0-.23.76,7.9,7.9,0,0,0-.16.79,7.64,7.64,0,0,0-.1.82c0,.06,0,.12,0,.18v.09s0,.06,0,.09,0,0,0,.06,0,0,0,0a.41.41,0,0,1,0-.08s0-.06,0-.09v-.14l0-.33c0-.1,0-.21,0-.32s0-.22,0-.32l-.06-.32c0-.11,0-.21-.07-.32s-.05-.2-.08-.31l-.09-.3c0-.11-.07-.21-.1-.31l-.11-.29-.12-.3c-.05-.09-.09-.19-.13-.28s-.09-.19-.14-.28l-.15-.28c-.05-.09-.1-.18-.16-.27l-.16-.27-.18-.25-.18-.26-.19-.24-.2-.24-.21-.23-.21-.23c-.08-.07-.15-.15-.22-.22l-.23-.21-.24-.2-.24-.2-.25-.18-.26-.18-.26-.17-.27-.16-.27-.16-.28-.14-.28-.13-.29-.13-.3-.11-.3-.11-.3-.1-.31-.08-.31-.07-.32-.07-.32-.05-.32,0c-.11,0,0,0-.06,0l-.07,0V180a9.6,9.6,0,0,0,8.69-9.17c0,.28-.11.56-.08.83s0,.54.05.8.08.52.15.78.14.51.23.75.19.49.3.73.23.46.36.69.27.44.42.65.31.42.48.62.34.39.52.57l.56.53c.2.17.4.33.61.48s.43.29.65.42a7.62,7.62,0,0,0,.69.38l.71.32c.25.09.5.18.75.25a7.38,7.38,0,0,0,.78.19,7,7,0,0,0,.8.13,7.37,7.37,0,0,0,.82.05h.17A.15.15,0,0,1,194.42,180Z"/><circle class="cls-36" cx="259.56" cy="383.29" r="17.35" transform="translate(-195 295.8) rotate(-45)"/><path class="cls-12" d="M268.66,383.52s-.09,0-.11,0h-.41c-.27,0-.55,0-.82.08s-.53.09-.79.15-.52.13-.77.21-.5.17-.75.27-.48.22-.71.34-.46.25-.68.39l-.64.44-.59.5c-.2.17-.38.36-.56.54s-.35.39-.51.59l-.46.63c-.14.22-.28.44-.4.67a8.75,8.75,0,0,0-.64,1.44,7.32,7.32,0,0,0-.23.76,7.9,7.9,0,0,0-.16.79,7.64,7.64,0,0,0-.1.82c0,.06,0,.12,0,.18v.09s0,.06,0,.09,0,0,0,.06,0,0,0,0a.41.41,0,0,1,0-.08s0-.06,0-.09v-.14l0-.33c0-.1,0-.21,0-.32s0-.22,0-.32l-.06-.32c0-.11-.05-.21-.07-.32s-.05-.2-.08-.31l-.09-.3c0-.11-.07-.21-.1-.31l-.11-.29-.12-.3c-.05-.09-.09-.19-.13-.28l-.14-.28-.15-.28c-.05-.09-.1-.18-.16-.27l-.16-.27-.18-.25-.18-.26-.19-.24-.2-.24-.21-.23-.21-.23-.22-.22-.23-.21-.24-.2-.24-.2-.25-.18-.26-.18-.26-.17-.27-.16-.27-.16-.28-.14-.28-.13-.29-.13-.3-.11-.3-.11-.3-.1-.31-.08-.31-.07-.32-.07-.32,0-.32,0a4,4,0,0,0-.49,0l-.49,0v-.09a9.34,9.34,0,0,0,9.12-9.17c0,.28.1.56.12.83s.11.54.16.8a7.51,7.51,0,0,0,.21.78,6,6,0,0,0,.26.75c.09.25.2.49.31.73s.24.46.37.69.27.44.42.65.31.42.47.62.34.39.53.57l.56.53c.2.17.4.33.61.48s.43.29.65.42a7.62,7.62,0,0,0,.69.38l.71.32c.25.09.5.18.75.25a7.38,7.38,0,0,0,.78.19,7,7,0,0,0,.8.13,7.37,7.37,0,0,0,.82.05h.17A.15.15,0,0,1,268.66,383.52Z"/><circle class="cls-37" cx="472.46" cy="400.78" r="17.35" transform="translate(-145.01 451.47) rotate(-45)"/><path class="cls-12" d="M481.56,401s-.08,0-.1,0h-.14l-.27,0c-.28,0-.55,0-.82.07s-.53.09-.8.15-.51.13-.77.21a6.61,6.61,0,0,0-.74.28c-.24.1-.48.21-.71.33s-.46.25-.68.39-.43.29-.64.45-.41.32-.6.49-.38.36-.55.55a9.5,9.5,0,0,0-1,1.22c-.14.21-.28.44-.41.66s-.24.47-.35.71-.2.48-.29.73-.16.51-.22.77-.12.52-.17.79-.07.54-.09.81c0,.06,0,.12,0,.18s0,.07,0,.1a.25.25,0,0,1,0,.08.11.11,0,0,1,0,.07l0,0a.19.19,0,0,1,0-.08.28.28,0,0,1,0-.09.57.57,0,0,0,0-.13c0-.11,0-.22,0-.33s0-.22,0-.33,0-.21-.05-.32a1.8,1.8,0,0,0-.06-.32c0-.1,0-.21-.07-.31a2.81,2.81,0,0,0-.08-.31,1.58,1.58,0,0,0-.09-.31c0-.1-.06-.2-.1-.3s-.07-.2-.11-.3l-.12-.29c0-.1-.08-.19-.13-.29s-.09-.19-.14-.28l-.14-.28c-.06-.09-.11-.18-.16-.27s-.11-.18-.17-.26a13.33,13.33,0,0,0-.55-.76l-.2-.24a2.2,2.2,0,0,0-.2-.23l-.22-.23-.22-.21a2.39,2.39,0,0,0-.23-.22l-.23-.2-.25-.19-.24-.19-.26-.18-.26-.17-.27-.16-.27-.15L467,402l-.29-.13-.29-.13-.29-.11-.3-.11-.3-.09-.31-.09-.31-.07-.32-.07-.32-.05-.32,0-.28,0-.28,0V401a9.16,9.16,0,0,0,8.91-9.16,7.48,7.48,0,0,0,0,.82c0,.27,0,.54.1.81s.11.52.18.78a7.32,7.32,0,0,0,.25.75q.14.36.3.72a7.55,7.55,0,0,0,.37.69q.19.33.42.66c.15.21.31.41.47.61s.34.39.52.57a7.15,7.15,0,0,0,.57.53c.2.17.4.33.61.48s.43.29.65.43.45.26.68.37.48.22.72.32.5.18.75.25.51.14.77.2l.8.12.82.06h.17S481.53,401,481.56,401Z"/><circle class="cls-38" cx="771.32" cy="192.38" r="8.58" transform="translate(89.88 601.75) rotate(-45)"/><path class="cls-12" d="M775.81,192.5s0,0,0,0h-.2l-.41,0a2.66,2.66,0,0,0-.39.07l-.38.1-.37.14-.35.16-.33.2a3.62,3.62,0,0,0-.32.22l-.3.24-.27.27-.25.29-.23.31a3.79,3.79,0,0,0-.2.34,3.59,3.59,0,0,0-.17.34l-.15.37c0,.12-.08.25-.11.37s-.06.26-.08.39a2.85,2.85,0,0,0,0,.41.28.28,0,0,0,0,.09v0s0,0,0,0a.06.06,0,0,1,0,0h0v-.15a.81.81,0,0,0,0-.16.78.78,0,0,0,0-.16.78.78,0,0,0,0-.16l0-.16a.94.94,0,0,0,0-.16l0-.15s0-.1,0-.15,0-.1-.05-.15,0-.1,0-.15l-.06-.14-.07-.14a245858274083.57,245858274083.57,0,0,1-.14-.28.57.57,0,0,0-.08-.13,1,1,0,0,0-.08-.14l-.09-.12-.09-.13-.09-.12-.1-.12L770,194l-.11-.11-.11-.11a1.14,1.14,0,0,0-.11-.11l-.12-.1-.12-.09-.12-.1-.13-.08-.13-.09-.13-.08-.13-.07-.14-.07-.14-.07-.14-.06-.15-.06-.15-.05-.15-.05-.15,0-.15,0-.16,0-.16,0-.16,0h-.8v-.05A4.74,4.74,0,0,0,771,188c0,.13.13.27.14.4a2.64,2.64,0,0,0,.12.4,2.91,2.91,0,0,0,.12.39c0,.12.09.25.13.37l.16.36c.06.11.12.23.19.34a2.2,2.2,0,0,0,.21.32,3.4,3.4,0,0,0,.23.3c.09.1.17.2.26.29l.28.26.3.24.32.21.34.18.36.16a2.29,2.29,0,0,0,.37.12l.38.1a2.57,2.57,0,0,0,.4.06,2.69,2.69,0,0,0,.4,0h.09S775.8,192.48,775.81,192.5Z"/><circle class="cls-39" cx="606.2" cy="205.18" r="8.58" transform="translate(32.46 488.74) rotate(-45)"/><path class="cls-12" d="M610.69,205.3s0,0-.05,0h-.2l-.41,0a2.66,2.66,0,0,0-.39.07l-.38.1-.37.14-.35.16-.33.2a3.62,3.62,0,0,0-.32.22l-.3.24-.27.27-.25.29-.23.31a3.79,3.79,0,0,0-.2.34,3.59,3.59,0,0,0-.17.34l-.15.37c0,.12-.08.25-.11.37s-.06.26-.08.39a2.85,2.85,0,0,0,0,.41.28.28,0,0,0,0,.09v0s0,0,0,0a.06.06,0,0,1,0,0h0v-.15a.81.81,0,0,0,0-.16.78.78,0,0,0,0-.16.78.78,0,0,0,0-.16l0-.16a.94.94,0,0,0,0-.16l0-.15,0-.15c0-.05,0-.1-.05-.15s0-.1,0-.15l-.06-.14c0-.05,0-.1-.07-.14a215125989906.85,215125989906.85,0,0,1-.14-.28.57.57,0,0,0-.08-.13,1,1,0,0,0-.08-.14l-.09-.12-.09-.13L605,207l-.1-.12-.1-.11-.11-.11a.57.57,0,0,0-.11-.11,1.14,1.14,0,0,0-.11-.11l-.12-.1-.12-.09-.12-.1-.13-.08-.13-.09-.13-.08-.13-.07-.14-.07-.14-.07-.14-.06-.15-.06-.15,0-.15-.05-.15,0-.15,0-.16,0-.16,0-.16,0h.48v0a4.85,4.85,0,0,0,4-4.52c0,.13-.19.27-.18.4s-.07.27,0,.4a2.58,2.58,0,0,0,0,.39c0,.12.05.25.09.37l.14.36c.06.11.11.23.18.34a3.45,3.45,0,0,0,.2.32,3.5,3.5,0,0,0,.24.3,3.47,3.47,0,0,0,.25.29l.28.26.3.24.32.21.34.18.36.16a2.29,2.29,0,0,0,.37.12l.38.1a2.57,2.57,0,0,0,.4.06,2.69,2.69,0,0,0,.4,0h.09S610.68,205.28,610.69,205.3Z"/><circle class="cls-40" cx="136.44" cy="213.72" r="8.58" transform="translate(-111.16 159.07) rotate(-45)"/><path class="cls-12" d="M140.93,213.83s0,0-.05,0h-.2l-.4,0-.4.07-.38.11-.37.13-.35.17-.33.19a3.62,3.62,0,0,0-.32.22l-.3.25a5.17,5.17,0,0,0-.52.56,3.55,3.55,0,0,0-.23.31c-.07.11-.14.22-.2.33a3.78,3.78,0,0,0-.17.35l-.15.36c0,.12-.08.25-.11.38s-.06.26-.08.39a2.71,2.71,0,0,0,0,.4.28.28,0,0,0,0,.09v.05s0,0,0,0a0,0,0,0,1,0,0h0s0,0,0,0v-.11a.86.86,0,0,0,0-.16,960325831869.15,960325831869.15,0,0,0,0-.32l0-.16a.83.83,0,0,0,0-.15l0-.16c0-.05,0-.1-.05-.15l0-.15s0-.1-.05-.15l-.06-.14-.07-.14a.91.91,0,0,0-.07-.14l-.07-.14-.08-.13a.57.57,0,0,0-.08-.13l-.09-.13-.09-.12-.09-.13-.1-.11-.1-.12-.11-.11-.11-.11-.11-.1-.12-.1-.12-.1-.12-.09-.13-.09a977628191735.78,977628191735.78,0,0,1-.26-.16l-.13-.08-.14-.07-.14-.07-.14-.06-.15-.06-.15,0-.15,0-.15,0-.15,0-.16,0-.16,0-.16,0c-.05,0,.08,0,0,0h0v0a4.37,4.37,0,0,0,4.23-4.53c0,.14-.08.27-.07.41s0,.26,0,.39,0,.26.07.39.06.25.11.37.09.24.15.36a2.21,2.21,0,0,0,.18.34,3.45,3.45,0,0,0,.2.32,3.65,3.65,0,0,0,.24.31,3.33,3.33,0,0,0,.25.28l.28.26.3.24.32.21a2.79,2.79,0,0,0,.34.18l.36.16.37.13a2.34,2.34,0,0,0,.38.09,2.57,2.57,0,0,0,.4.06,2.69,2.69,0,0,0,.4,0h.09S140.92,213.81,140.93,213.83Z"/><circle class="cls-41" cx="401.4" cy="431.32" r="8.58" transform="translate(-187.42 410.16) rotate(-45)"/><path class="cls-12" d="M405.89,431.43s0,0-.05,0h-.2l-.4,0-.4.07-.38.11-.37.13-.35.17-.33.19a3.62,3.62,0,0,0-.32.22l-.3.25a5.17,5.17,0,0,0-.52.56,3.55,3.55,0,0,0-.23.31c-.07.11-.14.22-.2.33a3.78,3.78,0,0,0-.17.35l-.15.36c0,.12-.08.25-.11.38s-.06.26-.08.39a2.71,2.71,0,0,0,0,.4.28.28,0,0,0,0,.09v.05s0,0,0,0a0,0,0,0,1,0,0h0s0,0,0,0v-.11a.86.86,0,0,0,0-.16,480162915954,480162915954,0,0,1,0-.32l0-.16a.83.83,0,0,0,0-.15l0-.16c0-.05,0-.1-.05-.15l0-.15c0-.05,0-.1-.05-.15l-.06-.14c0-.05-.05-.09-.07-.14l-.07-.14-.07-.14-.08-.13a.57.57,0,0,0-.08-.13l-.09-.13-.09-.12-.09-.13-.1-.11-.1-.12-.11-.11-.11-.11-.11-.1-.12-.1-.12-.1-.12-.09-.13-.09a488814095853.79,488814095853.79,0,0,0-.26-.16l-.13-.08-.14-.07-.14-.07-.14-.06-.15-.06-.15-.05-.15,0-.15-.05-.15,0-.16,0-.16,0-.16,0-.18,0h-.19v0a4.55,4.55,0,0,0,4.45-4.53,2.85,2.85,0,0,0,0,.41,2.63,2.63,0,0,0,.06.39c0,.13.06.26.09.39s.08.25.13.37a2.75,2.75,0,0,0,.15.36l.18.34.21.32a3.55,3.55,0,0,0,.23.31l.26.28.28.26.3.24.32.21a2.79,2.79,0,0,0,.34.18l.36.16.37.13c.12,0,.25.07.38.09a2.57,2.57,0,0,0,.4.06,2.69,2.69,0,0,0,.4,0h.09S405.88,431.41,405.89,431.43Z"/><circle class="cls-42" cx="202.57" cy="343" r="8.58" transform="translate(-183.2 243.7) rotate(-45)"/><path class="cls-12" d="M207.07,343.11s0,0,0,0h-.21l-.4,0-.4.07-.38.11-.36.13-.36.17-.33.19-.32.22a3.47,3.47,0,0,0-.29.25,2.37,2.37,0,0,0-.28.27l-.25.29a3.46,3.46,0,0,0-.22.31c-.08.11-.14.22-.21.33a3.78,3.78,0,0,0-.17.35c-.05.12-.1.24-.14.36s-.08.25-.11.38a2.7,2.7,0,0,0-.08.39,2.73,2.73,0,0,0,0,.4s0,.06,0,.09v.09l0,0h0s0,0,0,0v-.11c0-.05,0-.11,0-.16s0-.11,0-.16l0-.16,0-.16,0-.15c0-.06,0-.11,0-.16s0-.1-.05-.15a772658012838.14,772658012838.14,0,0,0-.1-.3l-.06-.14-.06-.14-.07-.14-.08-.14-.07-.13-.09-.13a.57.57,0,0,0-.08-.13l-.09-.12a.64.64,0,0,0-.1-.13.52.52,0,0,0-.1-.11l-.1-.12-.1-.11-.11-.11-.12-.1a.52.52,0,0,0-.11-.1l-.12-.1-.13-.09-.12-.09-.13-.08-.13-.08-.14-.08-.14-.07-.14-.07-.14-.06-.15-.06-.14-.05-.15,0-.16-.05-.15,0-.16,0-.16,0-.16,0-.18,0H198v0a4.55,4.55,0,0,0,4.45-4.53c0,.14,0,.27,0,.41s0,.26.06.39.06.26.1.39a2.29,2.29,0,0,0,.12.37l.15.36a3.72,3.72,0,0,0,.19.34,3.45,3.45,0,0,0,.2.32l.24.31a5.16,5.16,0,0,0,.54.54l.3.24.32.21a2.21,2.21,0,0,0,.34.18l.35.16.37.13.38.09.4.06a2.73,2.73,0,0,0,.41,0H207A.07.07,0,0,1,207.07,343.11Z"/><circle class="cls-43" cx="20.38" cy="320.81" r="8.58" transform="translate(-220.88 108.38) rotate(-45)"/><path class="cls-12" d="M24.88,320.92s0,0-.05,0h-.2a2.83,2.83,0,0,0-.41,0l-.39.07-.38.11a2.35,2.35,0,0,0-.37.14l-.35.16-.34.19-.31.22-.3.25-.27.27a2.26,2.26,0,0,0-.25.29A3.55,3.55,0,0,0,21,323c-.07.11-.14.22-.2.33a3.78,3.78,0,0,0-.17.35,2.75,2.75,0,0,0-.15.36c0,.13-.08.25-.11.38s-.06.26-.08.39,0,.27-.05.4v.18a0,0,0,0,1,0,0h0a.08.08,0,0,1,0,0,.09.09,0,0,1,0-.05v-.06c0-.06,0-.11,0-.17s0-.1,0-.16a.78.78,0,0,1,0-.16l0-.16c0-.05,0-.1,0-.15a.83.83,0,0,0,0-.15l0-.16A1.21,1.21,0,0,1,20,324l-.06-.15-.06-.15-.06-.14-.07-.14-.07-.13-.08-.14-.08-.13-.09-.13-.09-.12-.09-.12-.1-.12-.1-.12-.11-.11-.11-.11-.11-.1-.12-.1-.12-.1-.12-.09-.13-.09-.13-.08-.13-.08-.14-.08-.13-.07-.14-.06-.15-.07-.14,0-.15-.05-.15-.05-.15,0-.16,0-.15,0-.16,0-.16,0h-.8v-.05A4.73,4.73,0,0,0,20,316.37c0,.14.13.27.15.41s.09.27.11.4.09.26.12.38.09.25.14.37a3,3,0,0,0,.16.36,3.72,3.72,0,0,0,.19.34,3,3,0,0,0,.21.33l.23.3a5.16,5.16,0,0,0,.54.54l.3.24a2.2,2.2,0,0,0,.32.21l.34.19a2.63,2.63,0,0,0,.35.15l.37.13.39.1.39.06.41,0h.08S24.87,320.9,24.88,320.92Z"/><circle class="cls-44" cx="702.2" cy="78.89" r="8.58" transform="translate(149.89 519.63) rotate(-45)"/><path class="cls-12" d="M706.69,79s0,0-.05,0h-.2a2.83,2.83,0,0,0-.41,0l-.39.07-.38.11a2.79,2.79,0,0,0-.37.14l-.35.16-.33.19-.32.22-.3.25-.27.27a3.47,3.47,0,0,0-.25.29,3.55,3.55,0,0,0-.23.31c-.07.11-.14.22-.2.33s-.12.23-.17.35l-.15.36c0,.13-.08.25-.11.38s-.06.26-.08.39a2.71,2.71,0,0,0,0,.4.28.28,0,0,0,0,.09v0s0,0,0,0a0,0,0,0,1,0,0h0s0,0,0,0v-.11a1,1,0,0,0,0-.17,1,1,0,0,0,0-.16,1,1,0,0,0,0-.16l0-.16a.83.83,0,0,0,0-.15l0-.15s0-.11,0-.16,0-.1-.05-.14,0-.1,0-.15l-.06-.15-.07-.14-.07-.14a.83.83,0,0,0-.07-.13,1,1,0,0,0-.08-.14l-.08-.13-.09-.13-.09-.12-.09-.12-.1-.12-.1-.12a1.14,1.14,0,0,1-.11-.11l-.11-.11-.11-.1-.12-.1-.12-.1-.12-.09L700,79.8l-.13-.08-.13-.08-.13-.08-.14-.07-.14-.06-.14-.07-.15,0-.15,0-.15-.05-.15,0-.15,0-.16,0-.16,0-.16,0c-.05,0,.08,0,0,0s0,0,0,0v0a4.36,4.36,0,0,0,4.23-4.53c0,.14-.08.27-.07.41s0,.27,0,.4,0,.26.07.38a2.26,2.26,0,0,0,.11.37,3,3,0,0,0,.15.36,2.21,2.21,0,0,0,.18.34c.06.11.13.22.2.33l.23.3.26.28.28.26a3.15,3.15,0,0,0,.3.24,2.92,2.92,0,0,0,.32.21l.34.19a2.75,2.75,0,0,0,.36.15l.37.13.38.1.4.06.4,0h.09S706.68,79,706.69,79Z"/><circle class="cls-45" cx="757.9" cy="362.38" r="9.1" transform="translate(-34.26 642.06) rotate(-45)"/><path class="cls-12" d="M762.68,362.5s0,0-.06,0h-.21a3,3,0,0,0-.43,0l-.42.07-.41.11c-.13.05-.26.09-.38.15l-.38.17-.35.21a4,4,0,0,0-.34.23l-.31.26-.29.29a2.61,2.61,0,0,0-.27.31,2,2,0,0,0-.24.33,2.5,2.5,0,0,0-.21.35c-.07.12-.13.24-.19.37s-.11.25-.15.38a3,3,0,0,0-.12.4l-.09.42c0,.14,0,.28,0,.43a.28.28,0,0,0,0,.09v.09a.06.06,0,0,1,0,0h0a.06.06,0,0,1,0,0,.09.09,0,0,1,0-.05v-.07c0-.06,0-.11,0-.17a1.11,1.11,0,0,1,0-.17l0-.17,0-.17a.94.94,0,0,0,0-.16,1,1,0,0,0,0-.17s0-.1,0-.16l-.06-.16-.06-.15-.06-.16a1,1,0,0,0-.07-.15l-.07-.14a1.09,1.09,0,0,0-.08-.15,1,1,0,0,0-.08-.14l-.09-.14-.09-.14-.09-.13a.64.64,0,0,1-.1-.13l-.11-.12-.11-.12-.11-.12-.12-.12-.12-.11-.12-.1-.13-.11-.13-.09-.13-.1-.14-.09-.14-.08-.14-.08L755,363l-.15-.07-.15-.06-.16-.06-.15-.06-.16,0-.16,0-.17,0-.16,0-.17,0-.17,0h-.78v0c3.41-.11,4.88-2.21,4.92-4.81,0,.15.11.29.13.44s.09.28.11.42.09.27.13.41.09.26.14.39.11.26.17.38.13.25.2.36.14.24.22.35a3.92,3.92,0,0,0,.25.32l.27.3.3.28.32.25.34.22.36.2.38.16.39.14.41.1.41.07.44,0h.08S762.66,362.48,762.68,362.5Z"/><circle class="cls-46" cx="960.57" cy="175.08" r="9.1" transform="translate(157.55 730.5) rotate(-45)"/><path class="cls-12" d="M965.34,175.2s0,0-.05,0h-.22l-.43,0a2.7,2.7,0,0,0-.41.08,2.75,2.75,0,0,0-.41.11l-.39.14a2.53,2.53,0,0,0-.37.18l-.36.2-.33.24-.32.26-.29.28a3.88,3.88,0,0,0-.26.31l-.25.33-.21.35c-.06.12-.13.25-.18.37a3.12,3.12,0,0,0-.15.39,2.64,2.64,0,0,0-.12.4,2.71,2.71,0,0,0-.09.41c0,.14,0,.29,0,.43v.19a0,0,0,0,1,0,0h0l0-.05v-.12s0-.11,0-.17a1,1,0,0,0,0-.17,1,1,0,0,0,0-.17l0-.17,0-.16c0-.06,0-.11,0-.16s0-.11-.05-.16a.75.75,0,0,0,0-.16l-.06-.16-.06-.15-.07-.15-.07-.15-.08-.15a.64.64,0,0,1-.08-.14l-.09-.14-.09-.13a1.47,1.47,0,0,0-.1-.13.64.64,0,0,0-.1-.13,1.47,1.47,0,0,0-.1-.13l-.11-.12-.11-.12-.12-.11-.12-.11-.12-.11-.13-.1-.13-.1-.14-.09-.13-.09-.14-.09-.15-.08-.14-.07-.15-.07-.15-.07-.16-.06-.16-.06-.16-.05-.16,0-.16,0-.17,0-.16,0-.17,0-.18,0h-.18v-.05a4.93,4.93,0,0,0,4.71-4.8c0,.14,0,.29,0,.43l.06.42c0,.14.06.28.1.41s.08.27.13.4.1.25.16.37.13.25.2.37.14.23.22.34a3.92,3.92,0,0,0,.25.32,1.93,1.93,0,0,0,.27.3,2.68,2.68,0,0,0,.3.28,3.92,3.92,0,0,0,.32.25,4,4,0,0,0,.34.23,3,3,0,0,0,.36.19l.37.17.4.13a2.92,2.92,0,0,0,.4.1l.42.07c.14,0,.29,0,.43,0h.09S965.33,175.17,965.34,175.2Z"/><circle class="cls-47" cx="1069.8" cy="73.96" r="9.1" transform="translate(261.04 778.12) rotate(-45)"/><path class="cls-12" d="M1074.57,74.08s0,0-.06,0h-.21l-.43,0a3.1,3.1,0,0,0-.42.08,3,3,0,0,0-.4.11l-.39.14a2.53,2.53,0,0,0-.37.18c-.13.06-.24.13-.36.2a4.15,4.15,0,0,0-.34.24l-.31.26a3.83,3.83,0,0,0-.29.28l-.27.31-.24.33c-.07.12-.15.23-.21.35a3.14,3.14,0,0,0-.18.37c-.06.13-.11.26-.16.39l-.12.4c0,.13-.06.27-.08.41s0,.29,0,.43,0,.06,0,.09v.1l0,0h0s0,0,0,0v-.12a1,1,0,0,0,0-.17c0-.06,0-.11,0-.17a1,1,0,0,1,0-.17,1.36,1.36,0,0,0,0-.17l0-.16a1.24,1.24,0,0,1,0-.16c0-.06,0-.11,0-.16a1.42,1.42,0,0,1-.05-.16l-.06-.16a1,1,0,0,0-.07-.15l-.06-.15-.08-.15-.07-.15-.09-.14s0-.09-.08-.14a1.13,1.13,0,0,0-.1-.13l-.09-.13a1.47,1.47,0,0,0-.1-.13l-.11-.13-.1-.12-.12-.12a1.14,1.14,0,0,0-.11-.11l-.12-.11-.13-.11-.12-.1-.13-.1-.14-.09-.14-.09-.14-.09-.14-.08-.15-.07-.15-.07-.15-.07-.15-.06-.16-.06-.16,0-.16,0-.16,0-.17,0-.17,0-.17,0-.17,0H1065v0a4.91,4.91,0,0,0,4.7-4.8,3.11,3.11,0,0,0,0,.43,3,3,0,0,0,.06.42c0,.14.06.28.1.41s.08.27.13.4.1.25.16.37.12.25.19.37l.22.34.25.32a2.68,2.68,0,0,0,.28.3,3.83,3.83,0,0,0,.29.28l.32.25.34.23.36.19.38.17.39.13a3.06,3.06,0,0,0,.41.1l.42.07c.14,0,.28,0,.43,0h.09S1074.55,74.05,1074.57,74.08Z"/></g></g></g></svg>