<svg xmlns="http://www.w3.org/2000/svg" xmlns:xlink="http://www.w3.org/1999/xlink" viewBox="0 0 1280 853.33"><defs><style>.cls-1{isolation:isolate;}.cls-2{fill:url(#Áåçûìÿííûé_ãðàäèåíò_120);}.cls-10,.cls-3,.cls-8,.cls-9{mix-blend-mode:screen;}.cls-3{fill:url(#Áåçûìÿííûé_ãðàäèåíò_65);}.cls-4{fill:url(#Áåçûìÿííûé_ãðàäèåíò_73);}.cls-5{fill:url(#Áåçûìÿííûé_ãðàäèåíò_131);}.cls-6{fill:url(#Áåçûìÿííûé_ãðàäèåíò_128);}.cls-7{fill:url(#Áåçûìÿííûé_ãðàäèåíò_124);}.cls-8{fill:url(#Áåçûìÿííûé_ãðàäèåíò_43);}.cls-9{fill:url(#Áåçûìÿííûé_ãðàäèåíò_43-2);}.cls-10{fill:url(#Áåçûìÿííûé_ãðàäèåíò_43-3);}</style><linearGradient id="Áåçûìÿííûé_ãðàäèåíò_120" x1="640" x2="640" y2="846.13" gradientUnits="userSpaceOnUse"><stop offset="0" stop-color="#b05a61"/><stop offset="1" stop-color="#ffa771"/></linearGradient><radialGradient id="Áåçûìÿííûé_ãðàäèåíò_65" cx="983.18" cy="414.44" r="163.69" gradientTransform="translate(581.02 -573.83) rotate(45)" gradientUnits="userSpaceOnUse"><stop offset="0" stop-color="#ff8b00"/><stop offset="0.19" stop-color="#ca6e00"/><stop offset="0.59" stop-color="#5e3300"/><stop offset="0.87" stop-color="#1a0e00"/><stop offset="1"/></radialGradient><radialGradient id="Áåçûìÿííûé_ãðàäèåíò_73" cx="983.18" cy="414.44" r="62.16" gradientTransform="translate(581.02 -573.83) rotate(45)" gradientUnits="userSpaceOnUse"><stop offset="0" stop-color="#ffc931"/><stop offset="0.3" stop-color="#ffcb35"/><stop offset="0.62" stop-color="#ffd343"/><stop offset="0.95" stop-color="#ffdf58"/><stop offset="1" stop-color="#ffe15c"/></radialGradient><linearGradient id="Áåçûìÿííûé_ãðàäèåíò_131" x1="640" y1="407.48" x2="640" y2="652.23" gradientUnits="userSpaceOnUse"><stop offset="0" stop-color="#b03945"/><stop offset="1" stop-color="#ffa771"/></linearGradient><linearGradient id="Áåçûìÿííûé_ãðàäèåíò_128" x1="640" y1="410.45" x2="640" y2="749.75" gradientUnits="userSpaceOnUse"><stop offset="0" stop-color="#b03949"/><stop offset="0.18" stop-color="#ba474e"/><stop offset="0.52" stop-color="#d46b5b"/><stop offset="0.98" stop-color="#fda570"/><stop offset="1" stop-color="#ffa771"/></linearGradient><linearGradient id="Áåçûìÿííûé_ãðàäèåíò_124" x1="640" y1="537.7" x2="640" y2="1278.74" gradientUnits="userSpaceOnUse"><stop offset="0" stop-color="#9a3946"/><stop offset="1" stop-color="#ffa771"/></linearGradient><linearGradient id="Áåçûìÿííûé_ãðàäèåíò_43" x1="479.65" y1="252.74" x2="479.65" y2="322.83" gradientUnits="userSpaceOnUse"><stop offset="0" stop-color="#fff"/><stop offset="0.09" stop-color="#d7d7d7"/><stop offset="0.23" stop-color="#9e9e9e"/><stop offset="0.36" stop-color="#6e6e6e"/><stop offset="0.5" stop-color="#464646"/><stop offset="0.63" stop-color="#282828"/><stop offset="0.76" stop-color="#121212"/><stop offset="0.89" stop-color="#040404"/><stop offset="1"/></linearGradient><linearGradient id="Áåçûìÿííûé_ãðàäèåíò_43-2" x1="3905.92" y1="166.92" x2="3905.92" y2="236.62" gradientTransform="matrix(-1, 0, 0, 1, 4878.38, 0)" xlink:href="#Áåçûìÿííûé_ãðàäèåíò_43"/><linearGradient id="Áåçûìÿííûé_ãðàäèåíò_43-3" x1="4298.88" y1="59.39" x2="4298.88" y2="129.85" gradientTransform="matrix(-1, 0, 0, 1, 4878.38, 0)" xlink:href="#Áåçûìÿííûé_ãðàäèåíò_43"/></defs><title>Asset 2</title><g class="cls-1"><g id="Layer_2" data-name="Layer 2"><g id="Layer_1-2" data-name="Layer 1"><rect class="cls-2" width="1280" height="853.33"/><circle class="cls-3" cx="983.18" cy="414.44" r="163.69" transform="translate(-5.08 816.6) rotate(-45)"/><circle class="cls-4" cx="983.18" cy="414.44" r="62.16" transform="translate(-5.08 816.6) rotate(-45)"/><polygon class="cls-5" points="1274.88 479.23 1274.88 505.17 1280 505.17 1280 853.33 0 853.33 0 501.76 22.19 501.76 22.19 420.69 48.64 420.69 48.64 400.21 98.27 400.21 139.95 419.63 139.95 426.43 179.2 442.03 179.2 466.77 198.83 466.77 198.83 443.73 253.05 443.73 288.68 458.24 299.73 458.24 311.4 464.21 363.61 464.21 414.72 496.43 414.72 529.07 444.59 529.07 444.59 522.24 478.72 522.24 478.72 530.77 494.08 530.77 494.08 546.99 530.77 546.99 530.77 538.45 545.28 538.45 545.28 544.43 558.08 544.43 558.08 487.25 602.45 487.25 602.45 480.43 619.52 480.43 619.52 488.96 631.47 488.96 631.47 470.19 683.52 470.19 683.52 487.25 690.35 487.25 690.35 587.09 715.09 587.09 715.09 568.84 726.33 561.84 749.23 568.84 749.23 575.24 815.66 540.16 884.05 540.16 884.05 496.83 926.22 485.55 1059.84 485.55 1059.84 538.45 1100.8 538.45 1100.8 564.05 1115.31 564.05 1115.31 482.99 1122.99 482.99 1122.99 464.21 1127.25 464.21 1127.25 458.24 1132.37 458.24 1132.37 452.27 1137.49 452.27 1137.49 439.23 1140.5 420.63 1146.88 439.83 1146.88 452.27 1152 452.27 1152 458.24 1157.12 458.24 1157.12 464.21 1162.24 464.21 1162.24 480.43 1169.92 480.43 1169.92 491.52 1193.81 491.52 1193.81 498.35 1211.21 498.35 1240.75 487.83 1240.75 476.03 1258.43 473.83 1274.88 479.23"/><polygon class="cls-6" points="0 677.55 4.91 677.55 12.8 670.63 12.8 665.6 31.57 665.6 31.57 564.91 51.2 564.91 51.2 554.67 74.24 554.67 74.24 540.16 90.9 540.16 122.88 540.16 122.88 533.33 128 533.33 128 530.77 122.88 530.77 122.88 520.53 128 520.53 128 517.97 122.88 517.97 122.88 505.17 128 505.17 128 488.67 133.51 483.84 137.39 483.84 137.39 476.38 168.61 445.14 198.83 475.39 198.83 483.84 206.37 483.84 211.63 488.29 211.63 507.73 213.33 507.73 213.33 520.53 209.07 520.53 209.07 523.09 213.33 523.09 213.33 533.33 209.07 533.33 209.07 537.6 213.33 537.6 213.33 545.28 223.57 545.28 223.57 613.97 235.33 618.27 256 663.26 256 611.51 277.94 603.52 289.28 614.43 289.28 673.28 299.52 673.28 299.52 537.81 350.43 524.29 397.65 523.47 397.65 476.38 440.59 464.21 454.83 464.21 454.83 459.19 476.16 462.46 476.16 469.01 506.03 472.09 506.03 611.84 511.15 611.84 511.15 545.18 535.04 539.03 535.04 535.35 528.21 534.58 528.21 532.89 535.59 529.51 537.12 489.59 537.31 529.67 542.72 532.28 542.72 535.35 537.6 535.66 537.6 537.81 570.03 542.72 570.03 604.16 577.71 604.16 577.71 584.53 602.45 584.53 602.45 599.23 611.84 607.52 611.84 503.47 624.64 503.47 624.64 469.33 634.03 469.33 634.03 433.49 645.97 433.49 645.97 422.4 655.36 422.4 655.36 412.16 660.48 412.16 660.48 407.89 675.84 407.89 675.84 412.16 677.55 412.16 677.55 422.4 686.08 422.4 686.08 433.49 698.03 433.49 698.03 466.77 709.97 466.77 709.97 498.35 725.33 498.35 725.33 503.47 734.72 503.47 734.72 533.33 737.28 533.33 737.28 557.23 751.79 557.23 751.79 540.16 806.4 540.16 806.4 557.23 825.17 557.23 825.17 566.61 835.32 566.61 849.92 542.72 849.92 505.87 869.62 486.21 889.17 505.71 889.17 582.03 907.49 599.04 916.48 599.04 916.48 592.21 924.16 592.21 924.16 536.88 929.28 532.59 929.28 527.98 961.23 486.4 968.53 486.4 968.53 606.72 972.8 606.72 972.8 437.08 1071.4 426.33 1095.68 428.48 1095.68 437.08 1104.34 431.79 1117.87 431.79 1117.87 500.95 1146.88 480.99 1146.88 466.77 1159.68 466.77 1159.68 481.3 1204.05 506.79 1204.05 511.15 1201.49 511.15 1201.49 533.33 1216 533.33 1216 540.16 1213.44 540.16 1213.44 651.09 1223.68 651.09 1223.68 674.99 1280 674.99 1280 853.33 0 853.33 0 677.55"/><polygon class="cls-7" points="0 562.35 5.12 562.35 5.12 555.22 20.34 549.1 39.25 555.35 39.25 565.86 71.56 576.85 85.33 576.85 85.33 570.88 95.57 570.88 95.57 576.85 103.25 576.85 103.25 569.17 113.01 569.17 120.32 571.71 120.32 576.85 127.75 576.85 146.77 582.08 146.77 666.45 151.89 666.45 151.89 642.45 160.48 635 171.52 644.57 171.52 666.45 189.18 666.45 220.16 670.46 220.16 465.92 218.45 465.92 218.45 457.39 232.96 457.39 232.96 443.73 289.9 443.73 309.76 455.23 309.76 459.09 314.88 459.09 314.88 448.85 346.41 448.85 353.28 455.23 353.28 459.48 402.77 502.43 402.77 512.67 400.21 509.61 400.21 631.47 424.96 631.47 424.96 619.04 430.29 614.26 437.76 620.9 437.76 634.03 464.34 634.03 533.33 682.07 533.33 672.23 556.7 663.72 567.47 673.56 567.47 692.05 592.09 692.05 628.91 692.05 628.91 666.45 638.77 666.45 653.65 713.18 653.65 718.51 677.55 718.51 677.55 708.4 703.57 625.49 712.53 625.49 712.53 642.56 865.28 642.56 865.28 576.49 914.24 533.33 933.55 533.33 933.55 523.3 947.39 516.39 960 522.51 960 535.89 980.48 535.89 980.48 528.21 995.01 528.21 1026.64 504.32 1039.36 504.32 1039.36 500.05 1051.52 500.05 1053.87 501.94 1053.87 504.32 1059.84 504.32 1059.84 495.79 1071.17 495.79 1076.05 498.22 1076.05 504.32 1078.54 504.32 1085.44 508.41 1085.44 533.33 1100.8 533.33 1100.8 504.16 1140.05 482.88 1140.05 476.5 1178.86 448.85 1231.36 448.85 1231.36 474.45 1257.81 474.45 1257.81 591.38 1280 584.47 1280 853.33 0 853.33 0 562.35"/><path class="cls-8" d="M301.42,320s0-28.63,42.36-23.13c0,0,9.35-37.7,55.56-36.05s47.31,30.09,47.31,30.09,11.55-17.24,33-10.64,15.41,22,15.41,22,14.3-18.19,41.25-11.29,25.31,16.29,25.31,16.29,88-18,96.27,12.69Z"/><path class="cls-9" d="M1150.69,233.81s0-28.42-42.36-22.91c0,0-9.35-37.59-55.56-35.94s-47.31,30.14-47.31,30.14-11.55-17.21-33-10.61-15.4,22-15.4,22-14.3-18.19-41.26-11.28-25.3,16.08-25.3,16.08-88-18.25-96.27,12.47Z"/><path class="cls-10" d="M757.73,152.75s0-28.85-42.36-23.35c0,0-9.35-37.8-55.56-36.15s-47.31,30-47.31,30S601,106,579.49,112.62s-15.4,22-15.4,22-14.3-18.19-41.26-11.29-25.3,16.5-25.3,16.5-88-17.82-96.27,12.9Z"/></g></g></g></svg>